<svg xmlns="http://www.w3.org/2000/svg" viewBox="0 0 716.95 415.08"><defs><style>.cls-1{isolation:isolate;}.cls-2{fill:#8cc63f;}.cls-2,.cls-3{stroke:#000;stroke-miterlimit:10;stroke-width:4.33px;}.cls-3{fill:#e4e4e4;}.cls-4{fill:#979797;mix-blend-mode:multiply;opacity:0.2;}</style></defs><g class="cls-1"><g id="Perch"><path class="cls-2" d="M154.23,242l-.11.16s-48.59,3-56.18,12.14c-7.91,9.5-13.67,39.49-14.43,69.86,21.26-2.28,66.06-20.5,77.45-27.34,10.81-6.48-4.37-39.65-2-50.14Q156.52,244.37,154.23,242Z"/><path class="cls-2" d="M169.52,253.88c-4.76,0-42.86,7.62-48.57,21s16.19,69.53,16.19,69.53,43.81-38.1,46.67-49.53S169.52,253.88,169.52,253.88Z"/><path class="cls-3" d="M650.86,270.63c-35.7-3.21-103.74-15.09-166.32-23.6s-346.54-25.52-368-27.39c-36.16-3.15-27.54-73.93-5.87-74.86s65.08-2.59,115.58-3.8,409,31.78,433.49,31.11S686.56,273.85,650.86,270.63Z"/><path class="cls-3" d="M163.69,213.35s-11,12.58-12.58,26.73,49.53,33,59.75,15.72c22.79-30.66,67.6-28.3,67.6-28.3"/><path class="cls-4" d="M252,206.41c-35.54,0-51.07,32.74-73.13,54,13.21,3.66,27.15,3.55,32-4.61,12.91-17.37,32.88-24.14,47.78-26.75C347,235,449.83,242.31,484.54,247c62.58,8.51,130.62,20.39,166.32,23.6,13.27,1.2,21.29-12.21,24.87-29.5l-1.5-.1C532.85,229.49,393.39,204.48,252,206.41Z"/><path class="cls-4" d="M92.54,191.75c2.07,14.29,9.37,26.62,24,27.89,4.12.36,18,1.28,38.05,2.59,3.08-7.25,9-12.83,13-19.38C142.34,204.56,117.1,197.85,92.54,191.75Z"/><path d="M117.37,192.94c-6.94,5.4-4,17,.42,26.8,3.51.28,10.52.76,20.26,1.4C131.37,208.31,133,182.49,117.37,192.94Z"/><path d="M159.68,181.4c1.93,3.85,8.66,0,10.58-3.85,4.18-11.84,3.32-24.68,8.37-35.25l-20.77.68C153.2,155.76,153.1,169.69,159.68,181.4Z"/><path d="M194.31,228.53c-5.77,1-14.43,5.77-9.62,9.62,9.17,6.11,22.59,9.2,25.3,18.9a13.9,13.9,0,0,0,.87-1.25,60.34,60.34,0,0,1,14-13.51C219.45,231.49,206.53,226.9,194.31,228.53Z"/><path d="M226.54,162.33c-6.26,5.47-9.86,15.28-9,27.57.87,13.46,15.21,33.06,21.87,5.45C241,183.46,244,152.46,226.54,162.33Z"/><path d="M292.07,197.32c-7.69,10-4.92,21.84-2,32.58l21.18,1.48c-5-10.94-6.12-23.4-11.45-34.06C298.81,195.39,294,195.39,292.07,197.32Z"/><path d="M343.17,168.46c-7.94,7.07-4.42,50.31,9.66,42.93C365.27,204.88,364.84,159.94,343.17,168.46Z"/><path d="M571.52,184.54c-2.63,3.65-1,8-.09,11.46,2.89,10.58,2.89,21.16,4.81,32.7,0,3.85,2.89,7.7,7.69,5.77,2.89-1,6.74-2.88,7.7-5.77,4.81-14.42,4.81-30.77-4.81-42.31C582.64,180.81,576.45,181.3,571.52,184.54Z"/><path d="M644.51,201.77c4.81,4.81,12.5-1.92,13.46-8.65,1.26-7.54-.78-15.07-4.21-21.81-3.43,0-10.22-.39-19.69-1C640,179.38,635.89,194.72,644.51,201.77Z"/><path d="M623.54,236.14c-4.54-1.57-7.77,5.94-8.73,7.87-4.12,8.91-3.3,13.81-9.21,20.15,7.43,1,14.19,1.75,20.15,2.32C630.24,255.88,636.12,244,623.54,236.14Z"/><path d="M382.05,207.48c-8.86,3-5.83,16.1-3.93,28.58l19.95,3C397.71,222.66,396.48,202.16,382.05,207.48Z"/></g></g></svg>