<svg xmlns="http://www.w3.org/2000/svg" viewBox="0 0 716.95 415.08"><defs><style>.cls-1{isolation:isolate;}.cls-2{fill:#fff6e3;}.cls-3,.cls-5{fill:#979797;}.cls-3,.cls-4{mix-blend-mode:multiply;opacity:0.3;}</style></defs><g class="cls-1"><g id="Perch"><path class="cls-2" d="M92.77,385.73a45.55,45.55,0,0,1-12.44-1.81c-18.67-5.3-26.4-18.45-25.87-44,.14-6.75.46-11.88.72-16,.58-9.46.85-13.77-1.77-22-.63-2.05-1.48-4.38-2.77-7.57-.67-1.65-1.4-3.39-2.16-5.2-5.81-13.82-13-31-7.47-44.4,2.63-6.3,7.91-11.09,15.69-14.24,16-6.47,35.38-7.48,54.13-8.46,15.08-.78,30.68-1.6,43.92-5.31C184.56,208.44,462,95.86,499.88,76.73c17.74-9,33.54-21.43,48.83-33.5,16.12-12.73,31.34-24.75,47.07-31.1A48.53,48.53,0,0,1,614,8.38c22.45,0,37.73,17.66,42.52,29.52,1.58,3.9,4.89,8.17,8.39,12.69,7.46,9.62,16.75,21.59,15.45,37.78-1.49,18.5-16.44,24.69-41.75,29.11-7,1.22-15,2.34-23.49,3.53l-5.14.72c-41.86,5.86-215.1,65.39-294.22,101.1C238.73,257.6,165.8,305,153.18,328.59l-1.59,3c-11.49,21.56-28.85,54.15-58.82,54.15Z"/><path d="M614,10.55c22,0,36.38,18,40.51,28.16C659.64,51.41,680,65.32,678.2,88.2c-1.38,17.06-15.49,22.87-40,27.15-8.35,1.45-17.91,2.73-28.56,4.23-41.92,5.87-216.77,66.05-294.81,101.28S163.9,304,151.27,327.57c-11.23,20.95-28.44,56-58.5,56a43.25,43.25,0,0,1-11.85-1.72C64.45,377.16,56.08,366,56.62,340c.47-22,2.8-26.34-1.15-38.66-.69-2.27-1.63-4.77-2.82-7.72-7.7-19-23.69-49.48,4.86-61s68-5.33,97.83-13.7S464.06,97.22,500.85,78.66s65.63-52.36,95.74-64.53A46.36,46.36,0,0,1,614,10.55m0-4.33a50.72,50.72,0,0,0-19,3.9c-16,6.47-31.36,18.59-47.61,31.42-15.2,12-30.91,24.41-48.46,33.26-19.06,9.61-101.65,44-175,73.78s-154.48,61.87-169.69,66.14c-13,3.64-28.49,4.45-43.46,5.23-18.92,1-38.48,2-54.82,8.61-8.34,3.38-14,8.56-16.88,15.42-5.91,14.21,1.51,31.87,7.47,46.06.77,1.83,1.49,3.55,2.15,5.18,1.27,3.13,2.1,5.4,2.7,7.37v.05c2.5,7.8,2.25,11.71,1.67,21.17-.26,4.14-.58,9.29-.72,16.08-.55,26.35,7.91,40.57,27.44,46.11a47.48,47.48,0,0,0,13,1.89c31.27,0,49-33.28,60.73-55.3q.81-1.53,1.59-3c12.22-22.8,86.2-70.8,161.55-104.81,36.09-16.3,97.62-39.86,160.58-61.51s114-36.76,133-39.43l5.13-.72c8.5-1.19,16.52-2.31,23.57-3.54,21.06-3.68,41.77-9.11,43.54-31.06,1.36-17-8.21-29.37-15.9-39.28-3.41-4.4-6.63-8.56-8.09-12.18-5-12.41-21-30.87-44.52-30.87Z"/><path class="cls-3" d="M678.07,81.29c-81.33,20.61-206.15,51.47-320.52,101.29-93.83-23.92-139.59,20.81-218.5,39.5,164.28,9.87,94.41,3.67,21.64,81.38C150.85,348,67.5,395.89,66.05,315.87c.76-26,3.29-28.94-4-46.37-22.67-70.81-26,2.58-6.61,31.82,5.52,19.71-8,77.8,25.46,80.52,37.52,10.67,57.71-30.71,70.34-54.27C179.45,281.74,327,210.93,403.44,185.16c57.86-22,176.71-62.07,206.23-65.58C637.45,115.22,683.71,113.93,678.07,81.29Z"/><path class="cls-2" d="M650,275.56a38.59,38.59,0,0,1-4.09-.22c-17.16-1.79-34.75-10-51.76-17.92-13.69-6.38-27.85-13-41.29-15.91-30.24-6.6-328-37.3-370.5-38.2l-3.17,0c-18.82,0-37.55,3.41-55.66,6.71-16.56,3-32.21,5.86-46.6,5.86a93.64,93.64,0,0,1-9.57-.47c-19.51-2-29.67-12.95-34.76-21.74-6.17-10.67-7.51-22.57-6.79-29.52.44-4.18-.48-9.5-1.45-15.14-2.08-12-4.66-26.92,4.07-40.61,5.22-8.17,12.38-12,22.53-12,7,0,15.6,1.8,28,5.85,6.79,2.21,14.4,5,22.46,7.93l4.82,1.75c39.72,14.46,220.64,43.15,307.27,48.73,17.76,1.14,36,1.72,54.11,1.72,66.35,0,122.24-7.58,139.07-18.86l2.81-1.89c15.6-10.52,37-24.92,58.11-24.92,11.12,0,21,4.08,29.37,12.12,14,13.43,14.66,28.68,2.22,51-3.29,5.89-6,10.27-8.14,13.79-5,8.07-7.21,11.76-8.74,20.22-.41,2.11-.75,4.56-1.1,8-.19,1.78-.36,3.67-.54,5.62-1.74,19.17-4.36,48.14-30.68,48.14Z"/><path d="M51,98.56c7.5,0,16.54,2.22,27.33,5.74,8,2.63,17.1,6,27.21,9.66,39.78,14.49,222.42,43.36,307.87,48.86,18.23,1.17,36.53,1.72,54.25,1.72,65.32,0,122.81-7.52,140.28-19.23,15.37-10.3,37.94-26.44,59.71-26.44,9.68,0,19.21,3.2,27.88,11.52,12.35,11.86,14.52,25.61,1.82,48.36-10.76,19.25-14.82,22-17.12,34.69-.45,2.33-.79,5-1.13,8.14-2,19.53-2.27,51.82-29.06,51.82a37.23,37.23,0,0,1-3.86-.21c-30.64-3.2-62.54-27.19-92.82-33.8S223.64,202,182.44,201.15q-1.6,0-3.21,0c-36.26,0-72.42,12.57-102.26,12.57a91.86,91.86,0,0,1-9.34-.46c-34-3.56-41-35.27-39.62-48.88S18,128.89,30.3,109.53c5-7.83,11.77-11,20.7-11m0-4.33v0c-10.81,0-18.77,4.25-24.35,13-9.18,14.4-6.52,29.79-4.39,42.15.95,5.48,1.85,10.66,1.44,14.55-1.66,15.84,6.79,49.79,43.48,53.63A95,95,0,0,0,77,218c14.59,0,30.32-2.87,47-5.9,18-3.28,36.66-6.68,55.28-6.68,1,0,2.09,0,3.12,0,21.35.45,110.41,8.83,189.21,17S537,240.25,552.44,243.62c13.2,2.88,27.25,9.43,40.83,15.76,17.18,8,34.93,16.28,52.46,18.12a42.69,42.69,0,0,0,4.31.23c12.54,0,21.52-6.19,26.71-18.4,4.13-9.73,5.24-21.92,6.13-31.71.18-2,.34-3.83.53-5.59.35-3.35.68-5.75,1.07-7.77v0c1.45-8.06,3.5-11.41,8.46-19.48,2.16-3.54,4.86-7.94,8.18-13.86,12.84-23,12-39.55-2.61-53.6-8.79-8.44-19.17-12.72-30.87-12.72-21.8,0-43.49,14.61-59.32,25.29l-2.8,1.88c-16.25,10.89-72.94,18.49-137.87,18.49-18.1,0-36.26-.57-54-1.71-39.52-2.55-104.92-10.6-170.67-21s-117.89-21-136-27.58l-4.88-1.78c-8-2.94-15.66-5.71-22.46-7.93-12.63-4.12-21.48-6-28.68-6Z"/><g class="cls-4"><path class="cls-5" d="M696.57,131.44c-35.07-26.13.9,7.49-21.23,34.74-32.66,31.21-10,103.4-53.26,90.83-88.86-45.79-352.47-60.93-461.65-68.43-44-1.09-85.18,17.49-120.57,11.14,36.74,35.23,91.87-1.38,143.63,2.48,80.07,5.53,245.83,18.1,362.34,38.3,43.94,7.62,76.86,30.32,101.39,33.75,34.26,4.79,30-37.8,34.06-59.76C685.65,194.49,724.85,149.54,696.57,131.44Z"/></g></g></g></svg>