<svg xmlns="http://www.w3.org/2000/svg" viewBox="0 0 716.95 415.08"><defs><style>.cls-1{isolation:isolate;}.cls-2,.cls-7{fill:#c9b59f;}.cls-2,.cls-3,.cls-4{stroke:#000;stroke-miterlimit:10;stroke-width:4.33px;}.cls-3{fill:#39b34a;}.cls-4{fill:#8ac43f;}.cls-5{fill:#8c6239;}.cls-6{fill:#979797;mix-blend-mode:multiply;opacity:0.2;}</style></defs><g class="cls-1"><g id="Perch"><polygon class="cls-2" points="675.99 145.08 637.6 129.64 603.79 149.46 675.99 145.08"/><path class="cls-3" d="M146.61,226.6s37.7,26.42,39.25,56.73-2.72,40.81.39,53.24C160.22,312.09,137.29,282.56,146.61,226.6Z"/><path class="cls-4" d="M146.23,230.48c.38,4.28,26.81,39.64,10.49,77S99.2,380.87,111.64,407.3C72,342.79,65,298.1,92.21,270.9S146.23,230.48,146.23,230.48Z"/><path class="cls-5" d="M141.13,244.21c-10.33,0-22.15-5.54-28.73-13.46-4.16-5-5.83-10.43-4.85-15.72.92-4.9,8-7.11,14.78-9.25,3-.93,6.31-2,7.29-2.85a17,17,0,0,0,2.1-2.41c1.78-2.29,4.09-5.26,10.7-9.45-35-6.62-63.48-41.88-64.74-43.47l-.16-.19-.11-.23c-.16-.34-3.72-8.35,9.59-17.42.89-.72,4.46-3,13.79-3,1.75,0,3.62.09,5.57.25,6,.5,9.45,2.89,13.76,5.91,6.44,4.51,15.25,10.68,39.69,15.1a111.5,111.5,0,0,0,19.89,2c11.43,0,19-2.38,27-4.9s16.2-5.12,28.51-5.28h1.05c16.2,0,57,4.38,96.36,8.62,37,4,71.87,7.73,84.76,7.73l1.6,0c22.74-.76,208.53-62,210.41-62.65l.36-.12h.38c1,0,24.83,1.06,42.68,28.18l1.54,2.34-2.65.9c-13,4.42-35.09,13.6-48,19.07,7.27-.12,17.28-.25,27.51-.25,11.56,0,21.16.16,28.51.47l1.52.07.45,1.44c5.18,16.42,2.52,32.72-2.4,41.59-2.54,4.56-5.76,7.46-9.32,8.38a50.51,50.51,0,0,1-13.21,1.55c-5.34,0-11.89-.54-21-1.29-9.39-.78-22.26-1.85-39.94-2.82-2.19-.12-4.53-.18-7-.18-33.6,0-83.69,11-124,19.86-20.48,4.5-38.18,8.39-48.35,9.55a288.17,288.17,0,0,1-31.63,1.54c-33.5,0-67.74-3.94-91.61-10.54-22-6.09-47.49-9.05-77.86-9.05-5.93,0-11.05.1-15.17.19-10.44.21-12.82,4.19-15.84,9.23-2,3.26-4.16,6.95-8.68,9.85a50.05,50.05,0,0,0-9.09,7.53c-3.46,3.44-7,7-16,11.26A22,22,0,0,1,141.13,244.21Z"/><path d="M630,95.54s23.51.71,41,27.21c-19.38,6.6-58.43,23.5-58.43,23.5s18.75-.47,38.61-.47c9.93,0,20.14.12,28.42.47,6.7,21.28,0,44.6-10.2,47.22A48.22,48.22,0,0,1,656.7,195c-10.76,0-26.18-2.22-60.78-4.11q-3.39-.19-7.08-.19c-51.54,0-143.25,26.09-172.55,29.43a286.26,286.26,0,0,1-31.38,1.52c-29.39,0-65-3.25-91-10.46C265.51,203.3,236,202,215.45,202c-5.9,0-11.06.11-15.22.19-18.66.39-14.77,12.44-25.65,19.43s-10.1,11.66-24.87,18.66a20,20,0,0,1-8.58,1.75c-15,0-34-12.78-31.45-26.62,1.08-5.82,17.88-7.78,21.37-10.88s3.5-7,17.88-14.77c-37.31-3.11-69.56-43.53-69.56-43.53s-3.11-6.6,8.94-14.76c0,0,2.85-2.57,12.48-2.57,1.6,0,3.4.07,5.39.24,14,1.16,12.44,13.6,53.24,21a114.16,114.16,0,0,0,20.28,2c23.45,0,31.43-9.88,55.5-10.19h1c31.07,0,154.15,16.36,181.12,16.36.61,0,1.16,0,1.67,0,23.32-.78,211-62.76,211-62.76m-.63-4.35-.72.24C564,112.8,436.82,153.38,418.87,154l-1.53,0c-12.77,0-47.63-3.75-84.54-7.72-39.46-4.24-80.26-8.63-96.58-8.63h-1.07c-12.63.17-21,2.82-29.15,5.38-7.81,2.47-15.2,4.81-26.3,4.81a109.33,109.33,0,0,1-19.51-2c-24-4.34-32.56-10.35-38.83-14.74-4.4-3.08-8.2-5.75-14.82-6.3-2-.16-4-.25-5.75-.25-9.58,0-13.69,2.36-15.06,3.42C71.22,137.92,75,147.08,75.45,148.1l.22.46L76,149a159.38,159.38,0,0,0,21.42,21.24c13.53,11.16,26.84,18.49,39.72,21.9A34.14,34.14,0,0,0,130,199.2a15.24,15.24,0,0,1-1.83,2.11c-.78.61-4.22,1.69-6.5,2.4-7.08,2.22-15.1,4.74-16.25,10.92-1.11,5.94.73,12,5.3,17.5,7,8.39,19.47,14.24,30.4,14.24a24.13,24.13,0,0,0,10.43-2.16c9.33-4.42,13-8.11,16.63-11.68a47.24,47.24,0,0,1,8.73-7.25c4.94-3.17,7.4-7.27,9.37-10.56,3-5,4.78-8,14-8.18,4.1-.08,9.21-.19,15.13-.19,30.17,0,55.44,2.93,77.28,9,24,6.65,58.5,10.62,92.18,10.62a290.11,290.11,0,0,0,31.87-1.55c10.29-1.17,28-5.07,48.58-9.59C505.51,206,555.48,195,588.84,195c2.4,0,4.71.06,6.85.18,17.65,1,30.5,2,39.89,2.81,9.11.76,15.69,1.31,21.12,1.31a52.49,52.49,0,0,0,13.75-1.63c4.15-1.07,7.84-4.32,10.67-9.42,5.15-9.27,8-26.25,2.58-43.29l-.91-2.89-3-.13c-7.39-.31-17-.47-28.61-.47-5.67,0-11.28,0-16.39.09,12.41-5.16,27.69-11.33,37.6-14.71l5.3-1.8-3.08-4.67c-18.46-28.05-43.37-29.12-44.42-29.15l-.77,0Z"/><path class="cls-6" d="M82.4,136.55c-4.93,5.67-3,9.7-3,9.7s32,40.1,69.14,43.48c7.5-3.57,14.39-8.58,21.18-13.42C136.8,176.32,104.25,160.76,82.4,136.55Z"/><ellipse class="cls-7" cx="133.1" cy="225.53" rx="12.01" ry="21.94" transform="translate(-126.85 257.26) rotate(-66.41)"/><path class="cls-6" d="M493.14,186c-85.53,33.79-178.75,12.36-267.94,2-15-2.14-33.16-6.42-44.93,5.35-8.84,9.82-14.09,23.23-24.82,31.16,1.14,0,2.28-.07,3.42-.14h0c-1.14.07-2.28.11-3.42.14a31.27,31.27,0,0,1-3,2,31.27,31.27,0,0,0,3-2c-15,.37-29.92-2.32-44.88-.95,5.13,13,26.84,22.53,39.14,16.71,14.77-7,14-11.66,24.87-18.66s7-19,25.65-19.43,57.12-1.16,93.65,8.94,91.71,12.44,122.41,8.94,129.89-32,179.63-29.24,59.85,6.12,73.45,2.62c7.1-1.83,12.51-13.69,12.87-27.91H682C618.72,166.62,554.4,164.57,493.14,186Z"/></g></g></svg>