<svg xmlns="http://www.w3.org/2000/svg" viewBox="0 0 716.95 415.08"><defs><style>.cls-1{fill:#39b34a;}.cls-1,.cls-2,.cls-3,.cls-4{stroke:#000;stroke-miterlimit:10;stroke-width:4.33px;}.cls-2{fill:#8ac43f;}.cls-3{fill:#333;}.cls-4{fill:#ffe5ab;}</style></defs><g id="Perch"><polygon class="cls-1" points="164.54 336.15 161.11 289.1 237.55 284.16 245.37 335.03 164.54 336.15"/><ellipse class="cls-2" cx="204.96" cy="335.59" rx="40.41" ry="22.14" transform="translate(-4.61 2.86) rotate(-0.79)"/><ellipse class="cls-3" cx="204.96" cy="335.59" rx="11.32" ry="6.2" transform="translate(-4.61 2.86) rotate(-0.79)"/><polygon class="cls-1" points="587.06 277.94 577.65 231.72 502.72 247.63 508.95 298.72 587.06 277.94"/><ellipse class="cls-2" cx="548.01" cy="288.33" rx="40.41" ry="22.14" transform="translate(-55.7 150.57) rotate(-14.9)"/><ellipse class="cls-3" cx="548.01" cy="288.33" rx="11.32" ry="6.2" transform="translate(-55.7 150.57) rotate(-14.9)"/><path class="cls-4" d="M613.82,233.54c-87.46,42-380.09,80.58-477.48,65.78C53.06,292.62.53,135.8,116,151.56c93.36,16.15,391.19-22.42,477.48-65.76C698.19,40.48,695.74,195.61,613.82,233.54Z"/><path class="cls-3" d="M607,222c-87.46,42-380.09,80.58-477.48,65.79C46.24,281.11-6.3,124.28,109.16,140c93.36,16.15,391.2-22.41,477.48-65.76C691.36,29,688.92,184.09,607,222Z"/><circle cx="182.32" cy="192.56" r="6.41"/><circle cx="188.36" cy="236.44" r="6.41"/><circle cx="230.06" cy="190.22" r="6.41"/><circle cx="236.1" cy="234.1" r="6.41"/><circle cx="531.13" cy="144.51" r="6.41"/><circle cx="537.17" cy="188.39" r="6.41"/><circle cx="484.54" cy="155.16" r="6.41"/><circle cx="490.58" cy="199.04" r="6.41"/></g></svg>