<svg xmlns="http://www.w3.org/2000/svg" viewBox="0 0 716.95 415.08"><defs><style>.cls-1{fill:#a56734;stroke:#000;stroke-miterlimit:10;stroke-width:4.48px;}</style></defs><g id="Perch"><path class="cls-1" d="M695.88,204.33C686.42,203.42,203.06,159.07,177,158c-33.46-.44-48.28,59.2-90.23,59-40.13,1.42-82.15-33.82-78.45-75,3.81-74.49,141.84-73.57,104.6,12.32-19,50-90.86,13.32-55.21-25.5h0c9.56-9.6,24.29,5.49,14.59,14.83-1.68,1.64-4.37,4.75-3.6,7.06,1,3,6.55,6.83,13.66,7.82,8.74-2.22,24.5-29.93,10.34-44.33-7.61-7.25-22.82-8.53-37-3.11-30,10.18-34.34,46.1-13.57,66.23,70.42,60.76,71.83-38.53,135.69-40.07,26.79,1.16,481.4,42.76,520.13,46.45C711,185,709.72,205.57,695.88,204.33Z"/></g></svg>