<svg xmlns="http://www.w3.org/2000/svg" viewBox="0 0 197.79 102.55"><defs><style>.cls-1{fill:#fff;}</style></defs><g id="Eye"><path class="cls-1" d="M111,47.42a16.8,16.8,0,0,1-13.51-6.85l-.79-1.08.61-1.25c.29-.56.69-1.33,12.43-9.82s12.22-8.52,13-8.52h.61l.89.54.25.34A16.74,16.74,0,0,1,111,47.42Z"/><path d="M122.69,22.06h0A14.57,14.57,0,1,1,99.19,39.29c-.4-.56,22.91-17.23,23.5-17.23m0-4.33h0c-1.6,0-1.89,0-14.24,8.94-12.18,8.79-12.56,9.55-13.09,10.59a4.36,4.36,0,0,0,.33,4.56A19,19,0,0,0,111,49.58,18.9,18.9,0,0,0,126.19,19.5l-.5-.68-.73-.45-1-.64Z"/><circle cx="109.11" cy="35.66" r="6.06"/></g></svg>