<svg xmlns="http://www.w3.org/2000/svg" viewBox="0 0 197.79 102.55"><defs><style>.cls-1{fill:#fff;}.cls-2{fill:#222844;}.cls-3{fill:#dcf6f2;}.cls-4{fill:none;stroke:#000;stroke-miterlimit:10;stroke-width:4.33px;}</style></defs><g id="Eye"><path class="cls-1" d="M114.72,46.93a16.71,16.71,0,1,1,16.71-16.71A16.73,16.73,0,0,1,114.72,46.93Z"/><path class="cls-2" d="M114.72,15.65a14.57,14.57,0,1,1-14.57,14.57,14.57,14.57,0,0,1,14.57-14.57m0-4.28a18.85,18.85,0,1,0,18.85,18.85,18.87,18.87,0,0,0-18.85-18.85Z"/><circle class="cls-2" cx="114.72" cy="30.22" r="6.06"/><path class="cls-3" d="M81.15,54.26c-11.8,0-21.4-11.42-21.4-25.45s9.6-25.46,21.4-25.46,21.41,11.42,21.41,25.46S93,54.26,81.15,54.26Z"/><path d="M81.15,5.51c10.63,0,19.24,10.43,19.24,23.3S91.78,52.1,81.15,52.1,61.91,41.67,61.91,28.81s8.62-23.3,19.24-23.3m0-4.32c-13,0-23.57,12.39-23.57,27.62S68.16,56.43,81.15,56.43,104.72,44,104.72,28.81,94.15,1.19,81.15,1.19Z"/><path class="cls-3" d="M12.56,48.69a27.33,27.33,0,0,1-8-19.88c0-14,9.6-25.46,21.41-25.46,9.29,0,17.46,7.05,20.34,17.54l.5,1.82L45,23.45C41.23,25.07,22,33.85,16,48l-1.21,2.88Z"/><path d="M25.91,5.51c8.51,0,15.72,6.69,18.26,16C39.76,23.35,20.3,32.34,14.05,47.13A25.26,25.26,0,0,1,6.67,28.81c0-12.87,8.62-23.3,19.24-23.3m0-4.32c-13,0-23.56,12.39-23.56,27.62a29.53,29.53,0,0,0,8.72,21.45l4.53,4.31L18,48.81C23.68,35.46,42.21,27,45.87,25.44L49.34,24l-1-3.64C45.21,8.88,36.19,1.19,25.91,1.19Z"/><path class="cls-1" d="M93.56,11C82.41,16,72.18,22.26,61.91,28.89a26.73,26.73,0,0,0,3.54,13.37c11.16-6.8,22.38-14,34.07-20.36A24.16,24.16,0,0,0,93.56,11Z"/><path class="cls-1" d="M41.13,14.61a20.58,20.58,0,0,0-6.71-6.68c-10.27,6.91-19.05,15.31-27.57,24a25.87,25.87,0,0,0,4,11.37C20.61,33.16,30.84,23.61,41.13,14.61Z"/><path class="cls-4" d="M97.19,11.18s62.36,12.05,73.36,15.72,11.53,23.06.53,21.49"/></g></svg>