<svg xmlns="http://www.w3.org/2000/svg" viewBox="0 0 880 880">
  <defs>
    <style>
      .cls-1 {
        fill: #fff;
      }
      .cls-2 {
        fill: #222844;
      }
      .cls-3 {
        fill: #dcf6f2;
      }
      .cls-4 {
        fill: none;
        stroke: #000;
        stroke-miterlimit: 10;
        stroke-width: 4.33px;
      }
    </style>
  </defs>
  <g id="Eye">
    <path
      class="cls-1"
      d="M354.94,222.49a16.71,16.71,0,1,1,16.71-16.71A16.72,16.72,0,0,1,354.94,222.49Z"
    />
    <path
      class="cls-2"
      d="M354.94,191.21a14.57,14.57,0,1,1-14.57,14.57,14.57,14.57,0,0,1,14.57-14.57m0-4.28a18.85,18.85,0,1,0,18.85,18.85,18.87,18.87,0,0,0-18.85-18.85Z"
    />
    <circle class="cls-2" cx="354.94" cy="205.78" r="6.06" />
    <path
      class="cls-3"
      d="M321.37,229.83c-11.8,0-21.4-11.42-21.4-25.46s9.6-25.46,21.4-25.46,21.41,11.42,21.41,25.46S333.17,229.83,321.37,229.83Z"
    />
    <path
      d="M321.37,181.08c10.63,0,19.24,10.43,19.24,23.29s-8.61,23.29-19.24,23.29-19.24-10.43-19.24-23.29,8.61-23.29,19.24-23.29m0-4.33c-13,0-23.57,12.39-23.57,27.62S308.38,232,321.37,232s23.57-12.39,23.57-27.62-10.57-27.62-23.57-27.62Z"
    />
    <path
      class="cls-3"
      d="M252.78,224.26a27.35,27.35,0,0,1-8.05-19.89c0-14,9.6-25.46,21.4-25.46,9.29,0,17.47,7.05,20.35,17.54l.5,1.83-1.74.74c-3.79,1.61-23,10.4-29,24.51L255,226.41Z"
    />
    <path
      d="M266.13,181.08c8.51,0,15.72,6.68,18.26,15.95-4.42,1.88-23.87,10.88-30.12,25.66a25.24,25.24,0,0,1-7.38-18.32c0-12.86,8.62-23.29,19.24-23.29m0-4.33c-13,0-23.57,12.39-23.57,27.62a29.52,29.52,0,0,0,8.73,21.46l4.53,4.3,2.43-5.76c5.65-13.35,24.18-21.8,27.84-23.36l3.47-1.48-1-3.65c-3.13-11.44-12.15-19.13-22.43-19.13Z"
    />
    <path
      class="cls-1"
      d="M333.78,186.58c-11.16,5-21.38,11.24-31.65,17.87a26.73,26.73,0,0,0,3.54,13.37c11.16-6.8,22.37-14,34.07-20.36A24.07,24.07,0,0,0,333.78,186.58Z"
    />
    <path
      class="cls-1"
      d="M281.35,190.17a20.77,20.77,0,0,0-6.71-6.68c-10.27,6.91-19,15.32-27.57,24a25.74,25.74,0,0,0,4,11.37C260.83,208.72,271.06,199.17,281.35,190.17Z"
    />
    <path
      class="cls-4"
      d="M337.4,186.74s62.36,12,73.37,15.72,11.53,23.06.52,21.49"
    />
  </g>
</svg>
