<svg xmlns="http://www.w3.org/2000/svg" viewBox="0 0 197.79 102.55"><defs><style>.cls-1{fill:#ff0;}.cls-2{fill:#fff;}.cls-3{fill:#222844;opacity:0.31;}</style></defs><g id="Eye"><path class="cls-1" d="M114.6,51a23.32,23.32,0,0,1,.06-46.64,23.31,23.31,0,0,1,23.21,25.07l9.48,3.91-5.09,12.31-9.14-3.77A23.25,23.25,0,0,1,114.6,51Z"/><path d="M114.66,6.65A21.05,21.05,0,0,1,135.44,30.9l9,3.7L141,42.75l-8.72-3.6a21.06,21.06,0,1,1-17.66-32.5m0-4.5A25.57,25.57,0,1,0,133.8,44.63l5.52,2.28,4.16,1.72,1.72-4.16,3.37-8.15,1.71-4.16-4.15-1.72L140.19,28A25.56,25.56,0,0,0,114.66,2.15Z"/><path class="cls-2" d="M114.63,42a14.29,14.29,0,1,1,13.21-8.83A14.24,14.24,0,0,1,114.63,42Z"/><path d="M114.64,11.43v4A12.29,12.29,0,1,1,103.28,23a12.23,12.23,0,0,1,11.36-7.6v-4m0,0a16.3,16.3,0,1,0,6.22,1.24,16.3,16.3,0,0,0-6.22-1.24Z"/><path class="cls-1" d="M144.34,58.92a4.84,4.84,0,1,1,4.84-4.84A4.84,4.84,0,0,1,144.34,58.92Z"/><path d="M144.34,50.87a3.21,3.21,0,1,1-3.21,3.21,3.21,3.21,0,0,1,3.21-3.21m0-3.26a6.47,6.47,0,1,0,6.46,6.47,6.47,6.47,0,0,0-6.46-6.47Z"/><path class="cls-1" d="M146.79,72.81A4.84,4.84,0,1,1,151.63,68,4.84,4.84,0,0,1,146.79,72.81Z"/><path d="M146.79,64.76A3.21,3.21,0,1,1,143.58,68a3.21,3.21,0,0,1,3.21-3.21m0-3.25A6.47,6.47,0,1,0,153.26,68a6.47,6.47,0,0,0-6.47-6.46Z"/><path class="cls-1" d="M152.85,86a4.84,4.84,0,1,1,4.83-4.84A4.84,4.84,0,0,1,152.85,86Z"/><path d="M152.85,78a3.21,3.21,0,1,1-3.21,3.21A3.21,3.21,0,0,1,152.85,78m0-3.26a6.47,6.47,0,1,0,6.46,6.47,6.48,6.48,0,0,0-6.46-6.47Z"/><path class="cls-1" d="M162.38,95a4.84,4.84,0,1,1,4.84-4.84A4.84,4.84,0,0,1,162.38,95Z"/><path d="M162.38,87a3.21,3.21,0,1,1-3.21,3.21A3.21,3.21,0,0,1,162.38,87m0-3.25a6.47,6.47,0,1,0,6.47,6.46,6.47,6.47,0,0,0-6.47-6.46Z"/><circle class="cls-1" cx="175.46" cy="93.97" r="4.84"/><path d="M175.46,90.77a3.21,3.21,0,1,1-3.21,3.2,3.21,3.21,0,0,1,3.21-3.2m0-3.26A6.47,6.47,0,1,0,181.92,94a6.47,6.47,0,0,0-6.46-6.46Z"/><circle class="cls-1" cx="189.62" cy="93.7" r="4.84"/><path d="M189.62,90.49a3.21,3.21,0,1,1-3.2,3.21,3.21,3.21,0,0,1,3.2-3.21m0-3.25a6.47,6.47,0,1,0,6.47,6.46,6.47,6.47,0,0,0-6.47-6.46Z"/><circle class="cls-3" cx="114.84" cy="27.98" r="6.06"/></g></svg>