<svg xmlns="http://www.w3.org/2000/svg" viewBox="0 0 880 880">
  <defs>
    <style>
      .cls-1 {
        fill: #ff0;
      }
      .cls-2 {
        fill: #fff;
      }
      .cls-3 {
        fill: #222844;
        opacity: 0.31;
      }
    </style>
  </defs>
  <g id="Eye">
    <path
      class="cls-1"
      d="M355.94,226.55a22.9,22.9,0,0,1-8.86-1.77A23.32,23.32,0,1,1,379.21,205l9.48,3.92L383.6,221.2l-9.13-3.77A23.27,23.27,0,0,1,355.94,226.55Z"
    />
    <path
      d="M356,182.16a21.05,21.05,0,0,1,20.78,24.25l9,3.7-3.37,8.15-8.72-3.6A21.06,21.06,0,1,1,356,182.16m0-4.5a25.57,25.57,0,0,0-9.79,49.2,25.54,25.54,0,0,0,28.93-6.72l5.51,2.28,4.16,1.72,1.72-4.16,3.37-8.15,1.72-4.16L387.47,206l-5.94-2.45A25.55,25.55,0,0,0,356,177.66Z"
    />
    <path
      class="cls-2"
      d="M356,217.52a14.29,14.29,0,1,1,13.22-8.83A14.24,14.24,0,0,1,356,217.52Z"
    />
    <path
      d="M356,186.94v4a12.3,12.3,0,1,1-11.36,7.6,12.18,12.18,0,0,1,11.36-7.6v-4m0,0a16.29,16.29,0,0,0-6.23,31.34,16.08,16.08,0,0,0,6.21,1.24,16.29,16.29,0,0,0,0-32.58Z"
    />
    <path
      class="cls-1"
      d="M385.68,234.42a4.84,4.84,0,1,1,4.84-4.83A4.84,4.84,0,0,1,385.68,234.42Z"
    />
    <path
      d="M385.68,226.38a3.21,3.21,0,1,1-3.21,3.21,3.21,3.21,0,0,1,3.21-3.21m0-3.26a6.47,6.47,0,1,0,6.47,6.47,6.47,6.47,0,0,0-6.47-6.47Z"
    />
    <circle class="cls-1" cx="388.14" cy="243.48" r="4.84" />
    <path
      d="M388.14,240.27a3.21,3.21,0,1,1-3.21,3.21,3.21,3.21,0,0,1,3.21-3.21m0-3.25a6.47,6.47,0,1,0,6.46,6.46,6.47,6.47,0,0,0-6.46-6.46Z"
    />
    <circle class="cls-1" cx="394.19" cy="256.68" r="4.84" />
    <path
      d="M394.19,253.47a3.21,3.21,0,1,1-3.21,3.21,3.21,3.21,0,0,1,3.21-3.21m0-3.26a6.47,6.47,0,1,0,6.46,6.47,6.47,6.47,0,0,0-6.46-6.47Z"
    />
    <path
      class="cls-1"
      d="M403.72,270.51a4.84,4.84,0,1,1,4.84-4.84A4.84,4.84,0,0,1,403.72,270.51Z"
    />
    <path
      d="M403.72,262.46a3.21,3.21,0,1,1-3.2,3.21,3.21,3.21,0,0,1,3.2-3.21m0-3.26a6.47,6.47,0,1,0,6.47,6.47,6.47,6.47,0,0,0-6.47-6.47Z"
    />
    <path
      class="cls-1"
      d="M416.8,274.32a4.84,4.84,0,1,1,4.84-4.84A4.84,4.84,0,0,1,416.8,274.32Z"
    />
    <path
      d="M416.8,266.27a3.21,3.21,0,1,1-3.21,3.21,3.21,3.21,0,0,1,3.21-3.21m0-3.25a6.47,6.47,0,1,0,6.47,6.46A6.47,6.47,0,0,0,416.8,263Z"
    />
    <path
      class="cls-1"
      d="M431,274.05a4.84,4.84,0,1,1,4.84-4.84A4.84,4.84,0,0,1,431,274.05Z"
    />
    <path
      d="M431,266a3.21,3.21,0,1,1-3.21,3.21A3.21,3.21,0,0,1,431,266m0-3.25a6.47,6.47,0,1,0,6.46,6.46,6.47,6.47,0,0,0-6.46-6.46Z"
    />
    <circle class="cls-3" cx="356.18" cy="203.49" r="6.06" />
  </g>
</svg>
