<svg xmlns="http://www.w3.org/2000/svg" xmlns:xlink="http://www.w3.org/1999/xlink" viewBox="0 0 2314.63 6062.29"><defs><style>.cls-1{isolation:isolate;}.cls-2{fill:#fbcdb8;}.cls-2,.cls-25,.cls-27,.cls-28,.cls-29,.cls-3,.cls-30,.cls-32,.cls-33,.cls-34,.cls-35,.cls-36,.cls-37,.cls-38,.cls-4,.cls-42,.cls-43,.cls-44,.cls-45,.cls-46,.cls-47,.cls-48,.cls-49,.cls-5,.cls-50,.cls-51,.cls-52,.cls-53,.cls-54,.cls-55,.cls-56,.cls-57,.cls-58,.cls-59,.cls-6,.cls-63,.cls-67,.cls-68,.cls-69,.cls-7,.cls-70,.cls-71,.cls-8,.cls-9{stroke:#000;stroke-miterlimit:10;}.cls-2,.cls-25,.cls-27,.cls-28,.cls-29,.cls-3,.cls-30,.cls-4,.cls-43,.cls-44,.cls-45,.cls-46,.cls-47,.cls-48,.cls-49,.cls-5,.cls-50,.cls-51,.cls-52,.cls-53,.cls-54,.cls-55,.cls-56,.cls-57,.cls-58,.cls-59,.cls-63,.cls-67,.cls-69,.cls-70,.cls-71,.cls-8,.cls-9{stroke-width:4.33px;}.cls-3{fill:#333;}.cls-4{fill:#1a1a1a;}.cls-5,.cls-7{fill:#00dbdb;}.cls-25,.cls-32,.cls-42,.cls-6{fill:none;}.cls-6{stroke-width:8.66px;}.cls-7{stroke-width:4.54px;}.cls-10,.cls-33,.cls-8{fill:#ffb93b;}.cls-9{fill:#9c005d;}.cls-11,.cls-14{font-size:81px;}.cls-11,.cls-22{fill:#fff;}.cls-11,.cls-14,.cls-73{font-family:MyriadPro-Regular, Myriad Pro;}.cls-12{letter-spacing:-0.01em;}.cls-13{letter-spacing:-0.01em;}.cls-15,.cls-73{font-size:48px;}.cls-15{font-family:MyriadPro-SemiboldSemiCn, Myriad Pro;font-weight:600;}.cls-16{letter-spacing:-0.01em;}.cls-17{letter-spacing:0em;}.cls-18{letter-spacing:-0.02em;}.cls-19{letter-spacing:-0.01em;}.cls-20{letter-spacing:-0.04em;}.cls-21{letter-spacing:-0.06em;}.cls-23,.cls-26,.cls-34{fill:#222844;}.cls-24{fill:#dcf6f2;}.cls-26,.cls-72{opacity:0.31;}.cls-27{fill:#cacaca;}.cls-28{fill:#8cc63f;}.cls-29{fill:#f0f0f0;}.cls-31{fill:url(#radial-gradient);}.cls-32{stroke-width:4px;}.cls-33,.cls-34,.cls-35,.cls-36,.cls-37,.cls-38{stroke-width:5.15px;}.cls-35,.cls-71{fill:#9b0e00;}.cls-36{fill:#f7f8e7;}.cls-37,.cls-70{fill:#ffffea;}.cls-38,.cls-69{fill:#056b68;}.cls-39,.cls-41,.cls-61,.cls-65,.cls-66,.cls-72{mix-blend-mode:multiply;}.cls-39{opacity:0.25;}.cls-40,.cls-61,.cls-65{fill:#979797;}.cls-41{opacity:0.27;}.cls-43{fill:#93278f;}.cls-44{fill:#4d4d4d;}.cls-45{fill:#1756bc;}.cls-46{fill:#d7de21;}.cls-47{fill:#ff0;}.cls-48{fill:#dd0aac;}.cls-49{fill:#059ca0;}.cls-50{fill:#006837;}.cls-51{fill:#e8fdec;}.cls-52{fill:#dcffc3;}.cls-53{fill:#eef6e2;}.cls-54{fill:#ff4803;}.cls-55{fill:#acf43b;}.cls-56{fill:#c8a5db;}.cls-57,.cls-62{fill:#c9b59f;}.cls-58{fill:#39b34a;}.cls-59{fill:#8ac43f;}.cls-60{fill:#8c6239;}.cls-61{opacity:0.2;}.cls-63{fill:#e4e4e4;}.cls-64{fill:#fff6e3;}.cls-65,.cls-66{opacity:0.3;}.cls-67{fill:#ffe5ab;}.cls-68{fill:#a56734;stroke-width:4.48px;}.cls-74{letter-spacing:-0.01em;}.cls-75{letter-spacing:-0.01em;}.cls-76{letter-spacing:-0.01em;}.cls-77{fill:url(#radial-gradient-2);}.cls-78{fill:url(#radial-gradient-3);}.cls-79{fill:url(#radial-gradient-4);}.cls-80{fill:url(#radial-gradient-5);}.cls-81{fill:url(#radial-gradient-6);}.cls-82{fill:url(#radial-gradient-7);}.cls-83{fill:url(#radial-gradient-8);}.cls-84{fill:url(#radial-gradient-9);}.cls-85{fill:url(#radial-gradient-10);}</style><radialGradient id="radial-gradient" cx="1477.7" cy="1862.54" r="27.38" gradientUnits="userSpaceOnUse"><stop offset="0.22" stop-color="#ffffea"/><stop offset="0.24" stop-color="#f9feea"/><stop offset="0.27" stop-color="#e7fce9"/><stop offset="0.31" stop-color="#c9f7e7"/><stop offset="0.35" stop-color="#a0f2e4"/><stop offset="0.4" stop-color="#6aeae1"/><stop offset="0.45" stop-color="#2be1de"/><stop offset="0.48" stop-color="#00dbdb"/><stop offset="0.52" stop-color="#09d3dc"/><stop offset="0.59" stop-color="#21bee0"/><stop offset="0.67" stop-color="#499ce5"/><stop offset="0.78" stop-color="#806ded"/><stop offset="0.89" stop-color="#c532f7"/><stop offset="0.97" stop-color="#f0f"/></radialGradient><radialGradient id="radial-gradient-2" cx="1384.82" cy="5264.97" r="164.29" gradientTransform="translate(-209.33 25.34) scale(0.94 0.95)" gradientUnits="userSpaceOnUse"><stop offset="0" stop-color="#006837"/><stop offset="0.13" stop-color="#0b7339"/><stop offset="0.35" stop-color="#29903f"/><stop offset="0.65" stop-color="#5abf48"/><stop offset="1" stop-color="#9cff55"/></radialGradient><radialGradient id="radial-gradient-3" cx="1771.91" cy="5264.97" r="164.29" gradientTransform="translate(-209.33 25.34) scale(0.94 0.95)" gradientUnits="userSpaceOnUse"><stop offset="0" stop-color="#db6972"/><stop offset="0.25" stop-color="#dc6c74"/><stop offset="0.44" stop-color="#df767b"/><stop offset="0.61" stop-color="#e48686"/><stop offset="0.77" stop-color="#ec9d96"/><stop offset="0.92" stop-color="#f5bbab"/><stop offset="1" stop-color="#fbcdb8"/></radialGradient><radialGradient id="radial-gradient-4" cx="2110.17" cy="5251.68" r="164.29" gradientTransform="translate(-189.58 25.01) scale(0.95 0.95)" gradientUnits="userSpaceOnUse"><stop offset="0" stop-color="#c5f9d0"/><stop offset="0.05" stop-color="#b7eac4"/><stop offset="0.23" stop-color="#82b397"/><stop offset="0.41" stop-color="#568572"/><stop offset="0.58" stop-color="#346155"/><stop offset="0.74" stop-color="#1c4841"/><stop offset="0.88" stop-color="#0d3834"/><stop offset="1" stop-color="#083330"/></radialGradient><radialGradient id="radial-gradient-5" cx="1384.82" cy="5957.94" r="164.29" gradientTransform="translate(-209.33 25.34) scale(0.94 0.95)" gradientUnits="userSpaceOnUse"><stop offset="0" stop-color="#395175"/><stop offset="0.14" stop-color="#345c7d"/><stop offset="0.39" stop-color="#287a93"/><stop offset="0.71" stop-color="#14aab7"/><stop offset="1" stop-color="#00dbdb"/></radialGradient><radialGradient id="radial-gradient-6" cx="1771.91" cy="5957.94" r="164.29" gradientTransform="translate(-209.33 25.34) scale(0.94 0.95)" gradientUnits="userSpaceOnUse"><stop offset="0" stop-color="#93278f"/><stop offset="0.14" stop-color="#993396"/><stop offset="0.38" stop-color="#a753a9"/><stop offset="0.71" stop-color="#bf87c6"/><stop offset="1" stop-color="#d6bbe4"/></radialGradient><radialGradient id="radial-gradient-7" cx="2110.17" cy="5942.81" r="164.29" gradientTransform="translate(-189.58 25.01) scale(0.95 0.95)" gradientUnits="userSpaceOnUse"><stop offset="0" stop-color="#9cff55"/><stop offset="1" stop-color="#ff0"/></radialGradient><radialGradient id="radial-gradient-8" cx="1455.44" cy="5366.19" r="130.09" gradientUnits="userSpaceOnUse"><stop offset="0.3" stop-color="#c8a5db"/><stop offset="1" stop-color="#c5f9d0"/></radialGradient><radialGradient id="radial-gradient-9" cx="1820.84" cy="5366.19" r="130.09" gradientUnits="userSpaceOnUse"><stop offset="0.23" stop-color="#ff4803"/><stop offset="1" stop-color="#ffb93b"/></radialGradient><radialGradient id="radial-gradient-10" cx="1384.82" cy="5618.27" r="164.29" gradientTransform="translate(-209.33 25.34) scale(0.94 0.95)" gradientUnits="userSpaceOnUse"><stop offset="0" stop-color="#c8a5db"/><stop offset="1" stop-color="#412951"/></radialGradient></defs><g class="cls-1"><g id="Layer_1" data-name="Layer 1"><rect x="113.22" y="108.26" width="532.89" height="120.96"/><path class="cls-2" d="M745.34,438.4a6.57,6.57,0,0,0-4-.51c5.15-4.83,10.35-11.61,4.74-13.09-2.86-.75-9.71,3.77-16.78,9.48.75-.77,1.33-1.36,1.63-1.71,2.72-3.11,12.14-19.89,4.27-21.76-6.39-1.52-15.28,7.38-23.57,18.6,4.37-11.53,8.45-30.43-1.11-27.18-6.44,3.09-12.43,16.39-17.16,30.5,1-11.64.76-24.12-4-29.69-5.69-6.63-13.22,11.66-14.77,24.09s7.77,57.52,7.77,57.52l4.67,1.55s.57-3.86,1.26-8.83c11.37-24.66,46.15-29.64,46.15-29.64S750.7,441.24,745.34,438.4Z"/><rect class="cls-3" x="1037.24" y="468.9" width="50" height="16.07"/><path class="cls-4" d="M1146.76,426.8c-40.87-21-83.84-7.34-96.42,9.43-3.79,5.06-6.24,11.45-7.83,17.9a30.93,30.93,0,0,1,39.8,29.79c0,.36,0,.72,0,1.08l95,1.25C1178.08,482.7,1185.59,446.71,1146.76,426.8Z"/><path class="cls-4" d="M1275,455.8c3.67,57.12-97.47,30.91-97.47,30.91,0,.19,1.57-11.52,2.1-15.72C1231.49,468.37,1271.31,398.67,1275,455.8Z"/><path class="cls-5" d="M1046.24,468.9s7.33-34.33-16.51-55.81a96.65,96.65,0,0,0-29.09-17.56s47.69-4.45,56.86,16-.26,66.3-.26,66.3Z"/><path class="cls-5" d="M1040.73,473.88c-.52-.79-8.64-40.62-55.54-30.92,22-19.13,40.87-18.08,51.35-14.15,15.68,5.88,12.64,44.36,12.64,44.36"/><path class="cls-5" d="M1055.41,473.35c1.57-2.36-1.31-40.35,24.1-43s29.35,4.72,29.35,4.72-39.57,4.71-38.78,39.56Z"/><path class="cls-3" d="M1037.24,468.9h28.14a4.88,4.88,0,0,1,4.88,4.88v6.3a4.88,4.88,0,0,1-4.88,4.88h-28.14a0,0,0,0,1,0,0V468.9A0,0,0,0,1,1037.24,468.9Z"/><ellipse cx="1103.1" cy="413.68" rx="11" ry="5.17"/><path class="cls-6" d="M1977.85,458.44s5.5,52.67-13.37,66.82c31.45-5.5,40.88-16.51,55-32.23"/><path class="cls-7" d="M1889.35,402.41s32.53-69.5,113.05-24.9c56.56,31.33,51.76,62.46,40.34,97.36-3,9.26-7.62,22.49-11.25,33.36-2.61,7.82-17.52,8.9-23,2.75-3.5-3.93,2.78-34.54-2.27-39.17-14.61-13.39-24.56,19.15-34.65-2.36C1942.73,408,1886.3,422.26,1889.35,402.41Z"/><line class="cls-6" x1="1898.45" y1="412.85" x2="1894.52" y2="427.79"/><path class="cls-8" d="M1985.51,397.43l-15.12,23.44a.57.57,0,0,0,.3.86l22.27,7.43a.57.57,0,0,1,.34.78l-9.9,21.55a1.71,1.71,0,0,0,2.66,2l38.16-32.13a.58.58,0,0,0-.19-1l-21.75-7.25a.58.58,0,0,1-.23-.95l10.38-11.08a.58.58,0,0,0-.35-1l-26-3A.6.6,0,0,0,1985.51,397.43Z"/><ellipse cx="1936.71" cy="403.07" rx="12.58" ry="7.32" transform="translate(686.79 1936.37) rotate(-62.57)"/><ellipse cx="1909.85" cy="392.76" rx="12.58" ry="5.78" transform="translate(542.71 1782.98) rotate(-57.1)"/><path class="cls-9" d="M1696.47,354.05c-15.25-2.18-58.84,8.72-100.25,13.08-28.07,2.95-92.15,47.94-130.55,76.63,55.77,1.91,109.53,12.54,165.76,20.7.38.06.75.08,1.12.13.43-25.33-3.64-58.35-3.64-66.95C1628.91,397.64,1711.73,356.23,1696.47,354.05Z"/><path class="cls-10" d="M1594.25,389.41l11.23-2.91,8.76,7.6.71-11.58,9.93-6-10.79-4.25-1.14-4.9q-3.78.53-7.58,1l-1.28,1.55-6.87-.59-1.28.14c-.89.09-1.83.24-2.79.42l5.62,8.81Z"/><polygon class="cls-10" points="1605.13 408.01 1596.17 415.37 1585.02 412.16 1589.25 422.96 1582.76 432.57 1594.34 431.88 1601.47 441.03 1604.39 429.8 1615.29 425.85 1605.52 419.6 1605.13 408.01"/><polygon class="cls-10" points="1566.64 396.38 1562.58 388.88 1559.1 396.67 1550.7 398.21 1557.03 403.93 1555.91 412.39 1563.31 408.14 1571.01 411.82 1569.25 403.47 1575.13 397.29 1566.64 396.38"/><path class="cls-10" d="M1660.88,363.89l-7,5-8-2.92,2.56,8.14-5.25,6.73,8.54.07,1.16,1.73c3.95-2.1,8.15-4.37,12.36-6.7l-4.7-3.48Z"/><path class="cls-9" d="M1638.53,442a601.91,601.91,0,0,0-81.64-18.25c-19.24-3-37.93-5-55.62-6.17-76.59-5-134.55,6.58-138.21,30.27-3,19.3,30.77,41.8,83.64,59.42,4.21-2.77,10.23-6,10-6,2.72-1.55,6.16-6,6.7-6.23-.59-4.37.68-19.15,15.43-25.21a260,260,0,0,1,62.9,1.42c30.51,5.81,41,12,48,16.41,16.07,13.61,25.38,29.93,24.34,46.26-.06.86,115.44.17,120.29-28.62C1737.87,484.55,1698.34,460.05,1638.53,442Z"/><polygon class="cls-10" points="1413.99 463.87 1402.43 462.84 1395.04 471.77 1392.45 460.47 1381.66 456.19 1391.62 450.24 1392.35 438.66 1401.09 446.28 1412.33 443.4 1407.78 454.07 1413.99 463.87"/><polygon class="cls-10" points="1597.65 475.35 1590.52 466.21 1578.94 466.89 1585.44 457.29 1581.21 446.49 1592.35 449.7 1601.31 442.33 1601.71 453.93 1611.48 460.17 1600.58 464.13 1597.65 475.35"/><polygon class="cls-10" points="1698.54 506.9 1687.47 503.42 1678.33 510.56 1678.22 498.97 1668.61 492.48 1679.6 488.79 1682.8 477.64 1689.7 486.96 1701.3 486.56 1694.57 496 1698.54 506.9"/><polygon class="cls-10" points="1441.81 486.01 1435.63 481.08 1428.07 483.37 1430.85 475.98 1426.34 469.5 1434.23 469.85 1439 463.56 1441.1 471.17 1448.56 473.76 1441.97 478.11 1441.81 486.01"/><polygon class="cls-10" points="1646.19 482.65 1640.01 477.72 1632.45 480.02 1635.23 472.62 1630.72 466.14 1638.61 466.5 1643.38 460.2 1645.48 467.81 1652.94 470.4 1646.35 474.75 1646.19 482.65"/><polygon class="cls-10" points="1500.68 456.9 1489.93 452.55 1480.25 458.94 1481.07 447.37 1472 440.14 1483.26 437.34 1487.33 426.48 1493.47 436.32 1505.06 436.84 1497.6 445.72 1500.68 456.9"/><polygon class="cls-10" points="1547.54 455.56 1540.87 450.24 1532.7 452.71 1535.71 444.72 1530.83 437.72 1539.36 438.11 1544.51 431.31 1546.77 439.53 1554.83 442.33 1547.71 447.03 1547.54 455.56"/><polygon class="cls-10" points="1640.37 519.9 1635.59 512.83 1627.06 512.75 1632.31 506.02 1629.74 497.88 1637.77 500.8 1644.71 495.85 1644.42 504.37 1651.28 509.45 1643.08 511.81 1640.37 519.9"/><polygon class="cls-10" points="1446.39 454.24 1441.62 447.17 1433.08 447.09 1438.33 440.37 1435.77 432.23 1443.79 435.14 1450.74 430.19 1450.44 438.72 1457.3 443.79 1449.1 446.15 1446.39 454.24"/><text class="cls-11" transform="translate(153.76 192.51)">L<tspan class="cls-12" x="38.23" y="0">a</tspan><tspan class="cls-13" x="76.63" y="0">y</tspan><tspan x="113.97" y="0">er 1: Head</tspan></text><text class="cls-14" transform="translate(158.82 454.05)">&lt;none&gt;</text><text class="cls-14" transform="translate(158.82 1864.7)">&lt;none&gt;</text><text class="cls-15" transform="translate(282.63 610.98)">1</text><text class="cls-15" transform="translate(699.53 610.98)">2</text><text class="cls-15" transform="translate(1118.18 610.98)">3</text><text class="cls-15" transform="translate(1536.78 610.98)">4</text><text class="cls-15" transform="translate(1957.64 610.98)">5</text><text class="cls-15" transform="translate(282.63 1264.83)">1</text><text class="cls-15" transform="translate(699.53 1264.83)">2</text><text class="cls-15" transform="translate(1118.18 1264.83)">3</text><text class="cls-15" transform="translate(1536.78 1264.83)">4</text><text class="cls-15" transform="translate(1957.64 1264.83)">5</text><text class="cls-15" transform="translate(282.63 2009.08)">1</text><text class="cls-15" transform="translate(960.72 2464.6)">1</text><text class="cls-15" transform="translate(613.74 2575.38)">1</text><text class="cls-15" transform="translate(699.53 2009.08)">2</text><text class="cls-15" transform="translate(960.72 2656.39)">2</text><text class="cls-15" transform="translate(760.56 2891.78)">2</text><text class="cls-15" transform="translate(1118.18 2009.08)">3</text><text class="cls-15" transform="translate(960.72 2848.19)">3</text><text class="cls-15" transform="translate(749.84 3092.3)">3</text><text class="cls-15" transform="translate(235.48 2514.73)">3</text><text class="cls-15" transform="translate(1536.78 2009.08)">4</text><text class="cls-15" transform="translate(960.72 3039.99)">4</text><text class="cls-15" transform="translate(254.78 2803.25)">4</text><text class="cls-15" transform="translate(1957.64 2009.08)">5</text><text class="cls-15" transform="translate(439.55 4053.97)">1</text><text class="cls-15" transform="translate(1137.61 4053.97)">2</text><text class="cls-15" transform="translate(1860.3 4053.97)">3</text><text class="cls-15" transform="translate(683.51 4463.2)">4</text><text class="cls-15" transform="translate(1594.75 4463.2)">5</text><text class="cls-15" transform="translate(960.72 3231.78)">5</text><text class="cls-15" transform="translate(132.95 2785.41)">5</text><rect x="113.22" y="843.84" width="532.89" height="120.96"/><text class="cls-11" transform="translate(153.76 928.1)">L<tspan class="cls-12" x="38.23" y="0">a</tspan><tspan class="cls-13" x="76.63" y="0">y</tspan><tspan x="113.97" y="0">er 2: </tspan><tspan class="cls-16" x="273.69" y="0">E</tspan><tspan class="cls-13" x="312.98" y="0">y</tspan><tspan x="350.32" y="0">e</tspan></text><rect x="113.22" y="1497.69" width="532.89" height="120.96"/><text class="cls-11" transform="translate(153.76 1581.95)">L<tspan class="cls-12" x="38.23" y="0">a</tspan><tspan class="cls-13" x="76.63" y="0">y</tspan><tspan x="113.97" y="0">er 3: Neck</tspan></text><rect x="113.22" y="2221.29" width="532.89" height="120.96"/><text class="cls-11" transform="translate(153.76 2305.54)">L<tspan class="cls-12" x="38.23" y="0">a</tspan><tspan class="cls-13" x="76.63" y="0">y</tspan><tspan x="113.97" y="0">er 4: </tspan><tspan class="cls-17" x="273.69" y="0">B</tspan><tspan x="317.92" y="0">ody</tspan></text><rect x="113.22" y="3463.6" width="532.89" height="120.96"/><text class="cls-11" transform="translate(153.76 3547.86)">L<tspan class="cls-12" x="38.23" y="0">a</tspan><tspan class="cls-13" x="76.63" y="0">y</tspan><tspan x="113.97" y="0">er 5: </tspan><tspan class="cls-18" x="273.69" y="0">P</tspan><tspan x="314.76" y="0">e</tspan><tspan class="cls-19" x="355.34" y="0">r</tspan><tspan x="381.02" y="0">ch</tspan></text><rect x="113.22" y="4696.11" width="532.89" height="120.96"/><text class="cls-11" transform="translate(153.76 4780.37)">L<tspan class="cls-12" x="38.23" y="0">a</tspan><tspan class="cls-13" x="76.63" y="0">y</tspan><tspan x="113.97" y="0">er 6:</tspan><tspan class="cls-20" x="256.52" y="0"> </tspan><tspan class="cls-21" x="270.37" y="0">T</tspan><tspan x="305.45" y="0">ail</tspan></text><rect x="958.87" y="4696.11" width="532.89" height="120.96"/><text class="cls-11" transform="translate(999.41 4780.37)">L<tspan class="cls-12" x="38.23" y="0">a</tspan><tspan class="cls-13" x="76.63" y="0">y</tspan><tspan x="113.97" y="0">er 7: BGs</tspan></text><path class="cls-22" d="M1128.74,1135.11a16.81,16.81,0,0,1-13.51-6.84l-.79-1.08.61-1.25c.29-.57.69-1.33,12.43-9.82s12.22-8.53,13-8.53h.61l.89.55.25.34a16.74,16.74,0,0,1-13.48,26.63Z"/><path d="M1140.47,1109.76h0A14.57,14.57,0,1,1,1117,1127c-.4-.57,22.91-17.23,23.5-17.23m0-4.33h0c-1.6,0-1.89,0-14.24,8.93-12.18,8.8-12.56,9.55-13.09,10.59a4.36,4.36,0,0,0,.33,4.56,19,19,0,0,0,15.28,7.76A18.89,18.89,0,0,0,1144,1107.2l-.5-.69-.73-.44-1-.64Z"/><circle cx="1126.89" cy="1123.35" r="6.06"/><path class="cls-22" d="M294.58,1138.06a16.71,16.71,0,1,1,16.71-16.71A16.73,16.73,0,0,1,294.58,1138.06Z"/><path class="cls-23" d="M294.58,1106.78A14.57,14.57,0,1,1,280,1121.35a14.57,14.57,0,0,1,14.58-14.57m0-4.28a18.85,18.85,0,1,0,18.85,18.85,18.87,18.87,0,0,0-18.85-18.85Z"/><circle class="cls-23" cx="294.58" cy="1121.35" r="6.06"/><path class="cls-22" d="M733.33,1139.47a16.71,16.71,0,1,1,16.72-16.71A16.73,16.73,0,0,1,733.33,1139.47Z"/><path class="cls-23" d="M733.33,1108.19a14.58,14.58,0,1,1-14.57,14.57,14.57,14.57,0,0,1,14.57-14.57m0-4.28a18.85,18.85,0,1,0,18.86,18.85,18.88,18.88,0,0,0-18.86-18.85Z"/><circle class="cls-23" cx="733.33" cy="1122.76" r="6.06"/><path class="cls-24" d="M699.76,1146.81c-11.8,0-21.4-11.42-21.4-25.46s9.6-25.46,21.4-25.46,21.41,11.42,21.41,25.46S711.57,1146.81,699.76,1146.81Z"/><path d="M699.76,1098.06c10.63,0,19.24,10.43,19.24,23.29s-8.61,23.29-19.24,23.29-19.24-10.42-19.24-23.29,8.62-23.29,19.24-23.29m0-4.33c-13,0-23.56,12.39-23.56,27.62S686.77,1149,699.76,1149s23.57-12.39,23.57-27.62-10.57-27.62-23.57-27.62Z"/><path class="cls-24" d="M631.17,1141.24a27.39,27.39,0,0,1-8-19.89c0-14,9.6-25.46,21.41-25.46,9.29,0,17.46,7,20.34,17.55l.5,1.82-1.74.74c-3.79,1.62-23,10.39-29,24.51l-1.22,2.88Z"/><path d="M644.53,1098.06c8.5,0,15.71,6.68,18.25,16-4.41,1.88-23.87,10.88-30.12,25.66a25.28,25.28,0,0,1-7.37-18.32c0-12.86,8.61-23.29,19.24-23.29m0-4.33c-13,0-23.57,12.39-23.57,27.62a29.56,29.56,0,0,0,8.72,21.46l4.53,4.3,2.44-5.75c5.65-13.36,24.17-21.81,27.83-23.37l3.48-1.48-1-3.65c-3.14-11.44-12.15-19.13-22.43-19.13Z"/><path class="cls-22" d="M712.18,1103.56c-11.16,5-21.38,11.24-31.65,17.87a26.62,26.62,0,0,0,3.53,13.37c11.17-6.8,22.38-14,34.08-20.35A24.15,24.15,0,0,0,712.18,1103.56Z"/><path class="cls-22" d="M659.74,1107.16a20.51,20.51,0,0,0-6.71-6.69c-10.27,6.91-19,15.32-27.57,24a25.87,25.87,0,0,0,4,11.37C639.23,1125.7,649.45,1116.15,659.74,1107.16Z"/><path class="cls-25" d="M715.8,1103.72s62.36,12.06,73.36,15.72,11.53,23.06.53,21.49"/><path class="cls-25" d="M1952.13,1105s24.17,15.87,34.92,32.9"/><path class="cls-25" d="M1979.94,1100.52s-11,31.44-25.15,41.66"/><path class="cls-10" d="M1520.13,1120.47a23.32,23.32,0,1,1,23.28-21.57l9.47,3.91-5.09,12.31-9.13-3.77A23.24,23.24,0,0,1,1520.13,1120.47Z"/><path d="M1520.2,1076.09a21,21,0,0,1,20.78,24.24l9,3.7-3.37,8.16-8.71-3.61a21.15,21.15,0,0,1-17.73,9.64,21.07,21.07,0,0,1,.07-42.13m0-4.5a25.57,25.57,0,1,0,19.14,42.47l5.51,2.28,4.16,1.72,1.72-4.16,3.37-8.15,1.72-4.16-4.16-1.71-5.94-2.46a25.52,25.52,0,0,0-25.52-25.83Z"/><path class="cls-22" d="M1520.16,1111.45a14.29,14.29,0,1,1,13.22-8.84A14.16,14.16,0,0,1,1520.16,1111.45Z"/><path d="M1520.18,1084.86h0a12.29,12.29,0,1,1-11.36,7.6,12.18,12.18,0,0,1,11.36-7.6m0-4a16.3,16.3,0,1,0,6.21,1.24,16.29,16.29,0,0,0-6.21-1.24Z"/><path class="cls-10" d="M1549.87,1128.35a4.84,4.84,0,1,1,4.84-4.84A4.84,4.84,0,0,1,1549.87,1128.35Z"/><path d="M1549.87,1120.3a3.21,3.21,0,1,1-3.2,3.21,3.21,3.21,0,0,1,3.2-3.21m0-3.25a6.47,6.47,0,1,0,6.47,6.46,6.47,6.47,0,0,0-6.47-6.46Z"/><circle class="cls-10" cx="1552.33" cy="1137.41" r="4.84"/><path d="M1552.33,1134.2a3.21,3.21,0,1,1-3.21,3.21,3.21,3.21,0,0,1,3.21-3.21m0-3.26a6.47,6.47,0,1,0,6.46,6.47,6.47,6.47,0,0,0-6.46-6.47Z"/><circle class="cls-10" cx="1558.38" cy="1150.6" r="4.84"/><path d="M1558.38,1147.39a3.21,3.21,0,1,1-3.21,3.21,3.21,3.21,0,0,1,3.21-3.21m0-3.25a6.47,6.47,0,1,0,6.46,6.46,6.48,6.48,0,0,0-6.46-6.46Z"/><path class="cls-10" d="M1567.91,1164.43a4.84,4.84,0,1,1,4.84-4.84A4.84,4.84,0,0,1,1567.91,1164.43Z"/><path d="M1567.92,1156.38a3.21,3.21,0,1,1-3.21,3.21,3.21,3.21,0,0,1,3.21-3.21m0-3.25a6.47,6.47,0,1,0,6.46,6.46,6.47,6.47,0,0,0-6.46-6.46Z"/><circle class="cls-10" cx="1580.99" cy="1163.41" r="4.84"/><path d="M1581,1160.2a3.21,3.21,0,1,1-3.21,3.21,3.21,3.21,0,0,1,3.21-3.21m0-3.26a6.47,6.47,0,1,0,6.47,6.47,6.47,6.47,0,0,0-6.47-6.47Z"/><circle class="cls-10" cx="1595.16" cy="1163.13" r="4.84"/><path d="M1595.16,1159.93a3.21,3.21,0,1,1-3.21,3.21,3.21,3.21,0,0,1,3.21-3.21m0-3.26a6.47,6.47,0,1,0,6.46,6.47,6.47,6.47,0,0,0-6.46-6.47Z"/><circle class="cls-26" cx="1520.37" cy="1097.42" r="6.06"/><path class="cls-4" d="M1197.19,1821.58c-19.73,2.55-38.65,4-55.75,4.64-10.81,8.06-20.66,8.33-30.5,5.14a43.05,43.05,0,0,1-9.46-4.69l-.84,0c-1.62,4.75-4.8,8.42-7.19,9.38-12.78,5.11-32.46-.63-33-.83-1.19,5-2.47,9.71-3.67,17.3,60.79,17.81,143.07-.53,143.07-.53S1200.33,1832.58,1197.19,1821.58Z"/><path class="cls-27" d="M1199.11,1827.69l22.36,5.94-21.31,10.83s-6.64-1.75-7.34-8S1199.11,1827.69,1199.11,1827.69Z"/><path class="cls-27" d="M1165.57,1831.88l15.72,7.34-14.67,9.43s-6.64-1.74-7.34-8S1165.57,1831.88,1165.57,1831.88Z"/><path class="cls-27" d="M1089,1833.63l-15.72,7.34,14.67,9.43s6.64-1.75,7.34-8S1089,1833.63,1089,1833.63Z"/><path class="cls-27" d="M1049.25,1829.24l-12.6,3.34,21.32,10.83s6.43-1.7,7.29-7.77a44.53,44.53,0,0,1-4.77-1.17A38.11,38.11,0,0,1,1049.25,1829.24Z"/><circle class="cls-27" cx="1127.84" cy="1843.06" r="8.23"/><path class="cls-28" d="M696.63,1836.26s69.5-6.39,85.29-19.86c8.49-7.25,14.37,10.71,5.05,16.41-12.65,7.73-54.6,20.79-83.71,19.82C690.55,1846.61,696.63,1836.26,696.63,1836.26Z"/><path class="cls-28" d="M670,1838.94s-19.51-21.33-27.36-21.68-7.66,13-7.16,19.35-6.91,13.86-2.41,18.78,25.85,2.73,36.44-5.45S670,1838.94,670,1838.94Z"/><path class="cls-28" d="M687.3,1838.93a13.93,13.93,0,0,0-13.07-6.88c-9.46.36-15.27,7.19-12.48,15.18s9.11,7.49,14.61,7.73S686.24,1845.17,687.3,1838.93Z"/><path class="cls-28" d="M685.05,1836.47s39.53-21.84,44.64-13-3.12,17.17-2.58,22.7,7.9,16.88.65,20.49S682,1851.28,682,1851.28,679.34,1840.93,685.05,1836.47Z"/><path class="cls-29" d="M1986.05,1750.39s-15.19,9.43,4.72,13.63a124.73,124.73,0,0,0,15.32,2.17,68.4,68.4,0,0,0-1.74-16.19C1993.32,1750.49,1986.05,1750.39,1986.05,1750.39Z"/><path class="cls-30" d="M2025.38,1748.57c-7.76.72-15,1.17-21,1.43a68.4,68.4,0,0,1,1.74,16.19,177.48,177.48,0,0,0,19.88.45A41.33,41.33,0,0,0,2025.38,1748.57Z"/><path class="cls-29" d="M2050,1745.38c-8.37,1.43-16.76,2.45-24.59,3.19a41.33,41.33,0,0,1,.59,18.07,247.3,247.3,0,0,0,25.78-2.2C2052.92,1757.91,2052.85,1751,2050,1745.38Z"/><path class="cls-30" d="M2071.64,1740.56a210.46,210.46,0,0,1-21.67,4.82c2.88,5.66,3,12.53,1.78,19.06,7.82-1.06,15.18-2.4,21.71-3.81C2073.56,1753.77,2073.76,1747,2071.64,1740.56Z"/><path class="cls-30" d="M2097.67,1729.43a61.39,61.39,0,0,1-5.94,3.47,63.3,63.3,0,0,1,.54,22.83c4.16-1.33,7-2.49,8-3.24C2106.06,1748.29,2106.06,1724.19,2097.67,1729.43Z"/><path class="cls-29" d="M2091.73,1732.9a109.25,109.25,0,0,1-20.09,7.66c2.12,6.4,1.92,13.21,1.82,20.07,7.62-1.65,14.08-3.39,18.81-4.9A63.3,63.3,0,0,0,2091.73,1732.9Z"/><path class="cls-30" d="M1960.9,1757.42c-3.86,7.51-6.54,16-9.14,23.78,3.1,2.56,7.89,3.22,16.48,3.25,1.15,0,9-5,15.18-11.42.09-.08.16-.17.25-.25C1977,1766.62,1969.11,1761.71,1960.9,1757.42Z"/><path class="cls-29" d="M1990.12,1755.48c-3.07-5.93-9.51-11-15.84-14.17l-.14-.07c-5.76,4-9.93,9.73-13.24,16.18,8.21,4.29,16.11,9.2,22.77,15.36C1988.92,1767.24,1992.84,1760.72,1990.12,1755.48Z"/><path class="cls-30" d="M1974.14,1741.24c-5.83-2.87-11.54-4.09-14.42-2.74-3.22,1.5-7.65,6.72-10.65,13.15,4,1.83,7.92,3.73,11.83,5.77C1964.21,1751,1968.38,1745.23,1974.14,1741.24Z"/><path class="cls-29" d="M1960.9,1757.42c-3.91-2-7.88-3.94-11.83-5.77-.28.6-.55,1.19-.79,1.8-2.14,5.23-3.23,11-2,16.29,1.4,5.74,2.8,9.28,5.43,11.46C1954.36,1773.39,1957,1764.93,1960.9,1757.42Z"/><path class="cls-30" d="M1952.61,1775.51l-5.56-3.85a153.57,153.57,0,0,0-20.39,14,39.47,39.47,0,0,1,8.72,6.35A183.79,183.79,0,0,1,1952.61,1775.51Z"/><path class="cls-29" d="M1913.17,1822.11a169.7,169.7,0,0,1,22.21-30.13,39.47,39.47,0,0,0-8.72-6.35c-9.39,7.52-20.3,17.88-28.85,30.63A51.52,51.52,0,0,1,1913.17,1822.11Z"/><path class="cls-30" d="M1869.74,1899.35c-15,13.83-26.08,20.72-26.08,20.72s-12.27,34.48-9.64,35.68c.11,0,3.51-.39,3.75-.33,21.24-9.85,43.38-21.56,54-43a184.37,184.37,0,0,0-20.54-14.67C1870.79,1898.32,1870.3,1898.84,1869.74,1899.35Z"/><path class="cls-29" d="M1895.55,1903c3.47-11.88,3-25,3.62-37.36a110.48,110.48,0,0,1-17.56-9.25c-3.86,19.64-1.08,31.47-10.34,41.39a184.37,184.37,0,0,1,20.54,14.67A60.37,60.37,0,0,0,1895.55,1903Z"/><path class="cls-30" d="M1899.17,1865.66c.44-8.77,1.43-17.17,4.76-24.51a149,149,0,0,1,9.24-19,51.52,51.52,0,0,0-15.36-5.85,94.74,94.74,0,0,0-8.29,15,122.29,122.29,0,0,0-7.91,25.11A110.48,110.48,0,0,0,1899.17,1865.66Z"/><path class="cls-29" d="M1963.76,1783.22l-11.15-7.71a183.79,183.79,0,0,0-17.23,16.47,41.64,41.64,0,0,1,9.34,13.63C1954.85,1793.16,1963.76,1783.22,1963.76,1783.22Z"/><path class="cls-30" d="M1944.72,1805.61a41.64,41.64,0,0,0-9.34-13.63,169.7,169.7,0,0,0-22.21,30.13,119.23,119.23,0,0,1,12.71,8.38C1931.34,1822.46,1938.27,1813.53,1944.72,1805.61Z"/><path class="cls-29" d="M1914.62,1873.12c-.64-11.19-.42-21.72,3.81-30.28a107.91,107.91,0,0,1,7.45-12.35,119.23,119.23,0,0,0-12.71-8.38,149,149,0,0,0-9.24,19c-3.33,7.34-4.32,15.74-4.76,24.51A170.71,170.71,0,0,1,1914.62,1873.12Z"/><path class="cls-29" d="M1837.77,1955.42c5.7,1.32,46.54,4.54,46.54,4.54s14.64-10.3,24-26.93c-3.62-8-9.57-14.68-16.46-20.56C1881.15,1933.86,1859,1945.57,1837.77,1955.42Z"/><path class="cls-30" d="M1914.15,1918.72c3.74-14.26,1.33-30.52.47-45.6a170.71,170.71,0,0,0-15.45-7.46c-.62,12.37-.15,25.48-3.62,37.36a60.37,60.37,0,0,1-3.74,9.45c6.89,5.88,12.84,12.59,16.46,20.56A60.61,60.61,0,0,0,1914.15,1918.72Z"/><circle class="cls-31" cx="1477.7" cy="1862.54" r="27.38"/><circle class="cls-25" cx="1477.7" cy="1862.54" r="27.38"/><path class="cls-10" d="M1476.84,1842.92c-7.28,0-14.62-1.88-14.62-6.09s7.34-6.1,14.62-6.1,14.62,1.89,14.62,6.1S1484.12,1842.92,1476.84,1842.92Z"/><path d="M1476.84,1832.73c7,0,12.62,1.84,12.62,4.1s-5.65,4.09-12.62,4.09-12.62-1.83-12.62-4.09,5.65-4.1,12.62-4.1m0-4c-8,0-16.62,2.13-16.62,8.1,0,3.91,4.36,8.09,16.62,8.09,8,0,16.62-2.13,16.62-8.09,0-3.92-4.36-8.1-16.62-8.1Z"/><ellipse class="cls-10" cx="1476.84" cy="1831.47" rx="10.8" ry="5.07"/><path d="M1476.84,1828.41c4.86,0,8.8,1.37,8.8,3.06s-3.94,3.07-8.8,3.07-8.8-1.37-8.8-3.07,3.94-3.06,8.8-3.06m0-4c-7.89,0-12.8,2.71-12.8,7.06s4.91,7.07,12.8,7.07,12.8-2.71,12.8-7.07-4.9-7.06-12.8-7.06Z"/><path class="cls-32" d="M1636.63,1795s11.35-7,21.79,0c16.35,10.89-24.47,27.07-31.6,28.33-42.32,7.45-63.93-11.35-95.17-16.8s-53.81,19.7-53.81,19.7-3.68-20.43,10.49-26.24c9.17-3.76,12.44-5,20.43-3.9"/><path class="cls-33" d="M362.5,2909.32s-7.29-2.08-10.41-8-3.82-17.36-9.37-20.13-30.2-2.78-36.45,1.39-2.43,19.78-2.43,19.78Z"/><path class="cls-33" d="M322.93,2897.52s-48.84-3.3-48.59,5.21-1,28.25,1.74,33.66,36.37-.14,36.37-.14l-1-15.54s-16-1.17-19.54.4c1.88-2.59,1-6.31-.6-7,9.07,2.11,20.11.53,20.11.53Z"/><path d="M322.59,2947.5s5.9,6.25,19.78,6.25S358,2951,358,2951l-33-7.64Z"/><path class="cls-33" d="M397.9,2866.63s6.25,18.74-.69,26.38-15.27,16.66-29.85,13.88-23.6-1.39-25-6.94-6.94-10.41-12.5-8.33-25.19,14.53-26.55,20c-1.56,6.24-1.21,27.76,7.12,34.88,6.76,5.77,18.73,7.15,21.52,1.39,5.2-10.76-6.77-10.94-10.94-15.8,3-3.29,1.22-5.55.18-8.15,2.43-1,6.94-4.51,6.07-7.81,16.66,11.63,29.68,11.63,38,12.32s14.05-1.56,11.28,4.69-7.81,18.91-4.34,23.08,10.41,5.55,14.58,2.08,5.72-19.09,10.58-26,8.85-8.68,13.71-14.93,15.27-27.07,15.27-38.87S397.9,2866.63,397.9,2866.63Z"/><path d="M379,2954.07a2.28,2.28,0,0,0-2.39,1.84c-.55,3-1.68,7.89-4.22,11.27a76.45,76.45,0,0,0-5.16,7.66s13.15-5.74,15.41-15.9C383.48,2955.09,381,2954.2,379,2954.07Z"/><path class="cls-33" d="M413.17,2968.21s-25.45-3.24-37-.46S356.72,2980,356.72,2980l38.64,3.7Z"/><path class="cls-33" d="M441.4,2953.86c-5.09,8.79-6.48,10.18-14.81,10.65s-25.45-4.17-32.85,1.85-28.69,27.3-28.69,32.85,11.1,10.65,12,9.26c.56-.84,40-20.92,56.46-34.71C444.23,2964.78,441.4,2953.86,441.4,2953.86Z"/><path class="cls-33" d="M434,2913.6c1.39.93,6,40.26,4.16,44s-5.09,11.57-13.88,14.81-21.29,5.56-30.08,13.42-23.6,21.29-19,27.77,7.86,7.4,7.86,7.4,1.85,4.17,7.87,1.39,11.11-15.27,15.73-18.51,14.83-11.28,25-12c12.5-.93,49.06,1.39,49.06,1.39Z"/><path d="M372.74,3003.89a2.28,2.28,0,0,1-.17,3c-2.15,2.14-5.55,5.84-6.9,9.85a74.2,74.2,0,0,1-3.41,8.59s-2.7-14.09,4.41-21.7C369.36,3000.77,371.53,3002.35,372.74,3003.89Z"/><path d="M384.47,3017.13a2.26,2.26,0,0,1,1.11,2.8c-1.05,2.85-2.58,7.63-2.13,11.85A74.9,74.9,0,0,1,384,3041s-8.37-11.66-5.11-21.55C380.09,3015.71,382.73,3016.24,384.47,3017.13Z"/><path class="cls-34" d="M658.9,3038.09c0-11.8-233.23-297.1-233.23-297.1l-8.86,75.28-3.64,30.92A485.76,485.76,0,0,0,425,2894.32c10,33.26,26.82,77.36,52,109.06,45.81,57.61,74.27,175.62,65.25,208.24-2.09,11.11,22.9-15.27,27.07-40.95,15.27-10.41,44.42-49.29,45.12-65.94,26.38-5.56,35.4-39.57,34.71-45.82C661,3053.36,658.9,3049.89,658.9,3038.09Z"/><path class="cls-35" d="M418,2793.74s13.89,104.82,65.25,136.75c40.26,68.72,84,103.43,110.37,109.68-29.15-36.1-33.32-63.86-31.23-61.09s28.35,53.79,65.83,67.68c7.64-3.13,9.14-8.67,9.14-8.67s8.22,29.84,27.76,40.26c9.72-58.31,2.08-101.35-9-122.87s-212.41-252.67-212.41-252.67Z"/><path class="cls-36" d="M416.81,2816.27c-7.82-43.4-17.5-103-14.05-115.54,5.55-20.13,16-16.66,18.05-38.88s-17.35-26.37-17.35-26.37-22.22-6.25-43.74,5.55-36.79,46.51-41,86.08,28.46,97.18,55.53,121.47c19.56,17.55,40.56,36.55,50.71,45.74a485.76,485.76,0,0,1-11.84-47.13Z"/><path class="cls-37" d="M360.42,2577.17s-.47-30.08,19.43-37,41.65-13.42,55.07,5.55,29.62,54.14,11.11,76.36-34.24,24.52-50,19.43-35.63-25.91-35.63-25.91Z"/><path class="cls-38" d="M640.75,2858.29c-9.72-23.6-20.82-38.18-31.24-47.89-10.38-39.45-22.6-107.62-98.31-137.85-7.94-4.25-19-11.63-20.28-20.41-2.08-13.89,9-18.75,11.11-51.37s-30.55-65.25-77.75-82.61-80.75,1.16-93.94,15.05-6,27.3-6,27.3l36.1,38.37v-21.71s-.47-30.08,19.43-37,41.65-13.42,55.07,5.55,29.62,54.14,11.11,76.36c-10.87,13.05-20.79,19.22-30.31,21.07a21.07,21.07,0,0,1,2.55,3.77l-.34-.09s4,5.94,2.34,15.71c-2.34,13.9-17.27,30.56-21.43,36.12-28.46,35.75-30.52,126.81,21.28,179.79-.06-.67-.1-1.31-.16-2-4.6-59.75-.32-90,19.59-124.36-7.63,112.46,24.3,147.86,24.3,147.86l2.08-29.15,5.55,25.68s17.36-29.85,20.13-50.67c8.33,41.64,34,83.29,66.64,94.4-3.47-27.07-1.39-61.08-1.39-61.08s22.46,73.91,70.35,59.34c14.58,33.32,40.72,33,40.72,33S650.47,2881.89,640.75,2858.29Z"/><path class="cls-33" d="M316.92,2615.58s-9.26,20.36,21.28,29.62,35.18-15.74,35.18-15.74l-14.81-29.62Z"/><path class="cls-34" d="M354.86,2608.17s13.42,9.26,11.57,19.9-6.48,17.59-14.8,19.44c11.56,3.7,19,1.85,23.6-.46s12.49-12.5,8.79-24.53-11.11-19.44-18.51-22.68S354.86,2608.17,354.86,2608.17Z"/><g class="cls-39"><path class="cls-40" d="M426.54,2567.43a26.3,26.3,0,0,1-47.2,21.61,26.3,26.3,0,1,0,47.2-21.61Z"/></g><g class="cls-41"><path class="cls-40" d="M377.27,2609.25a30.7,30.7,0,0,0-11.76-9.41,5.65,5.65,0,0,0-6.42,1l-.52-1-41.65,15.74a18.81,18.81,0,0,0,3.64,19.61c9.08-8.72,21.57-15.64,40.3-21.75C360.3,2617.49,371.14,2615.45,377.27,2609.25Z"/></g><path class="cls-33" d="M318.77,2560.51S284,2574,279.9,2598c-3.95,23.05-5.41,43.59,8.67,64a2.21,2.21,0,0,0,3.86-.49c10.86-28.1,24.82-43.58,69.38-56.11C384,2599.15,352.09,2544.54,318.77,2560.51Z"/><path class="cls-34" d="M320.62,2555.42s-2.78,4.63-6,6.48c26.84,1.85,41.19,27.76,37.49,46.27-1.39,6.48,24.52-1.38,19.9-16.66s-15.38-30.79-26.38-36.55C335.89,2549.86,329.87,2550.79,320.62,2555.42Z"/><circle class="cls-42" cx="625.69" cy="2561.29" r="34.87"/><circle class="cls-42" cx="771.72" cy="2877.32" r="34.87"/><circle class="cls-42" cx="760.82" cy="3077.83" r="34.87"/><circle class="cls-42" cx="144.9" cy="2771.32" r="34.87"/><circle class="cls-42" cx="268.08" cy="2787.59" r="34.87"/><circle class="cls-42" cx="245.68" cy="2501.84" r="34.87"/><line class="cls-42" x1="597.18" y1="2584.89" x2="468.59" y2="2659"/><line class="cls-42" x1="745.39" y1="2900.92" x2="651.67" y2="3012.07"/><line class="cls-42" x1="732.31" y1="3101.43" x2="588.47" y2="3110.15"/><line class="cls-42" x1="276.8" y1="2515.15" x2="324.75" y2="2558.74"/><line class="cls-42" x1="298.14" y1="2775.34" x2="357.44" y2="2702.59"/><line class="cls-42" x1="161.89" y1="2741.64" x2="292.05" y2="2632.84"/><line class="cls-42" x1="170" y1="2796.3" x2="285.52" y2="2911.82"/><circle class="cls-38" cx="1120.27" cy="2451.94" r="58.85"/><circle class="cls-43" cx="1325.41" cy="2451.94" r="58.85"/><circle class="cls-44" cx="1530.56" cy="2451.94" r="58.85"/><circle class="cls-45" cx="1735.7" cy="2451.94" r="58.85"/><circle class="cls-46" cx="1940.85" cy="2451.94" r="58.85"/><circle class="cls-35" cx="1120.27" cy="2643.74" r="58.85"/><circle class="cls-2" cx="1325.41" cy="2643.74" r="58.85"/><circle class="cls-5" cx="1530.56" cy="2643.74" r="58.85"/><circle class="cls-47" cx="1735.7" cy="2643.74" r="58.85"/><circle class="cls-48" cx="1940.85" cy="2643.74" r="58.85"/><circle class="cls-34" cx="1120.27" cy="2835.53" r="58.85"/><circle class="cls-49" cx="1325.41" cy="2835.53" r="58.85"/><circle class="cls-4" cx="1530.56" cy="2835.53" r="58.85"/><circle class="cls-9" cx="1735.7" cy="2835.53" r="58.85"/><circle class="cls-50" cx="1940.85" cy="2835.53" r="58.85"/><circle class="cls-36" cx="1120.27" cy="3027.33" r="58.85"/><circle class="cls-51" cx="1325.41" cy="3027.33" r="58.85"/><circle class="cls-29" cx="1530.56" cy="3027.33" r="58.85"/><circle class="cls-52" cx="1735.7" cy="3027.33" r="58.85"/><circle class="cls-53" cx="1940.85" cy="3027.33" r="58.85"/><circle class="cls-33" cx="1120.27" cy="3219.13" r="58.85"/><circle class="cls-54" cx="1325.41" cy="3219.13" r="58.85"/><circle class="cls-55" cx="1530.56" cy="3219.13" r="58.85"/><circle class="cls-56" cx="1735.7" cy="3219.13" r="58.85"/><circle class="cls-5" cx="1940.85" cy="3219.13" r="58.85"/><polygon class="cls-57" points="738.75 3810.96 700.37 3795.52 666.56 3815.34 738.75 3810.96"/><path class="cls-58" d="M209.38,3892.48s37.7,26.42,39.25,56.74-2.72,40.8.39,53.23C223,3978,200.06,3948.44,209.38,3892.48Z"/><path class="cls-59" d="M209,3896.37c.39,4.27,26.82,39.63,10.5,76.94s-57.52,73.45-45.08,99.87c-39.64-64.51-46.63-109.2-19.43-136.4S209,3896.37,209,3896.37Z"/><path class="cls-60" d="M203.9,3910.09c-10.33,0-22.15-5.54-28.74-13.46-4.15-5-5.82-10.43-4.84-15.72.92-4.9,8-7.11,14.78-9.25,3-.93,6.31-2,7.29-2.85a17.5,17.5,0,0,0,2.1-2.4c1.78-2.3,4.09-5.27,10.7-9.46-35-6.62-63.48-41.88-64.74-43.46l-.16-.2-.11-.23c-.16-.34-3.73-8.35,9.59-17.42.89-.72,4.46-3,13.79-3,1.74,0,3.62.08,5.57.24,6,.5,9.44,2.89,13.76,5.91,6.43,4.51,15.25,10.68,39.69,15.1a111.5,111.5,0,0,0,19.89,2c11.43,0,19-2.38,27-4.9s16.21-5.12,28.52-5.28H299c16.2,0,56.95,4.38,96.36,8.62,37,4,71.87,7.73,84.76,7.73.58,0,1.11,0,1.6,0,22.74-.76,208.53-62,210.4-62.65l.37-.12h.38c1,0,24.83,1.06,42.68,28.18l1.54,2.34-2.65.9c-13,4.42-35.09,13.6-48,19.07,7.27-.12,17.27-.25,27.51-.25,11.56,0,21.15.16,28.51.47l1.52.07.45,1.45c5.18,16.42,2.52,32.72-2.41,41.59-2.53,4.56-5.75,7.45-9.31,8.37a50.5,50.5,0,0,1-13.21,1.56c-5.34,0-11.88-.55-21-1.3-9.39-.78-22.26-1.85-39.95-2.82-2.18-.12-4.52-.18-7-.18-33.6,0-83.7,11-124,19.86-20.48,4.5-38.18,8.39-48.36,9.55a287.85,287.85,0,0,1-31.62,1.54c-33.5,0-67.74-3.94-91.61-10.54-22-6.09-47.49-9-77.86-9-5.93,0-11,.1-15.17.19-10.44.22-12.83,4.19-15.84,9.23-1.95,3.26-4.16,7-8.68,9.86a50.48,50.48,0,0,0-9.09,7.52c-3.46,3.45-7,7-16,11.26A22,22,0,0,1,203.9,3910.09Z"/><path d="M692.79,3761.42s23.51.72,40.94,27.21c-19.37,6.6-58.43,23.51-58.43,23.51s18.76-.47,38.62-.47c9.93,0,20.14.11,28.42.47,6.7,21.27,0,44.59-10.2,47.21a48.22,48.22,0,0,1-12.67,1.49c-10.76,0-26.18-2.22-60.78-4.11-2.26-.13-4.62-.18-7.08-.18-51.54,0-143.25,26.08-172.55,29.42a286.17,286.17,0,0,1-31.38,1.53c-29.39,0-65-3.26-91-10.47-28.37-7.84-57.91-9.13-78.43-9.13-5.9,0-11.06.11-15.23.2-18.65.38-14.76,12.43-25.64,19.43s-10.11,11.65-24.87,18.65a20,20,0,0,1-8.58,1.75c-15,0-34-12.78-31.45-26.62,1.08-5.82,17.88-7.77,21.37-10.88s3.5-7,17.88-14.77c-37.31-3.11-69.56-43.52-69.56-43.52s-3.11-6.61,8.94-14.77c0,0,2.85-2.57,12.48-2.57,1.6,0,3.39.07,5.39.24,14,1.16,12.44,13.6,53.24,21a113.23,113.23,0,0,0,20.28,2c23.45,0,31.42-9.88,55.5-10.19h1c31.07,0,154.15,16.35,181.12,16.35.6,0,1.16,0,1.67,0,23.32-.77,211-62.76,211-62.76m-.63-4.35-.72.24c-64.72,21.37-191.85,62-209.8,62.55l-1.53,0c-12.78,0-47.63-3.75-84.54-7.72-39.46-4.24-80.26-8.63-96.58-8.63h-1.08c-12.63.17-21,2.82-29.14,5.39-7.82,2.47-15.2,4.8-26.3,4.8a109.15,109.15,0,0,1-19.51-2c-24-4.33-32.56-10.35-38.83-14.74-4.4-3.08-8.2-5.74-14.82-6.3-2-.16-3.95-.25-5.75-.25-9.58,0-13.7,2.36-15.06,3.42C134,3803.8,137.74,3813,138.22,3814l.22.46.32.4a160.35,160.35,0,0,0,21.42,21.23c13.53,11.16,26.84,18.49,39.72,21.9a34.13,34.13,0,0,0-7.12,7.11,15.24,15.24,0,0,1-1.83,2.11c-.78.61-4.22,1.69-6.5,2.4-7.08,2.22-15.11,4.74-16.26,10.93-1.1,5.94.73,12,5.31,17.49,7,8.39,19.47,14.24,30.4,14.24a24.13,24.13,0,0,0,10.43-2.16c9.33-4.42,13-8.11,16.63-11.68a46.85,46.85,0,0,1,8.73-7.24c4.94-3.18,7.39-7.28,9.36-10.57,3-5,4.79-8,14-8.18,4.11-.08,9.22-.19,15.14-.19,30.16,0,55.44,2.94,77.27,9,24.05,6.65,58.51,10.62,92.19,10.62a290.11,290.11,0,0,0,31.87-1.55c10.29-1.17,28-5.07,48.57-9.59,40.16-8.82,90.13-19.81,123.49-19.81,2.4,0,4.7.06,6.85.18,17.65,1,30.5,2,39.88,2.81,9.12.76,15.7,1.31,21.13,1.31a52.49,52.49,0,0,0,13.75-1.63c4.15-1.06,7.84-4.32,10.67-9.41,5.15-9.28,7.94-26.26,2.58-43.29l-.91-2.9-3-.13c-7.38-.31-17-.47-28.6-.47-5.67,0-11.28,0-16.39.09,12.41-5.15,27.69-11.33,37.6-14.7l5.29-1.81-3.07-4.67c-18.46-28.05-43.38-29.12-44.43-29.15l-.76,0Z"/><path class="cls-61" d="M145.17,3802.43c-4.93,5.67-3,9.71-3,9.71s32,40.09,69.14,43.47c7.5-3.57,14.38-8.58,21.18-13.42C199.57,3842.21,167,3826.64,145.17,3802.43Z"/><ellipse class="cls-62" cx="195.87" cy="3891.41" rx="12.01" ry="21.94" transform="translate(-3448.8 2513.78) rotate(-66.41)"/><path class="cls-61" d="M555.91,3851.92c-85.54,33.79-178.75,12.36-267.94,2-15-2.14-33.17-6.42-44.93,5.35-8.84,9.82-14.09,23.23-24.82,31.16,1.14,0,2.28-.07,3.42-.13h0c-1.14.06-2.28.1-3.42.13a34.83,34.83,0,0,1-3,2,34.83,34.83,0,0,0,3-2c-15,.37-29.92-2.32-44.88-1,5.13,13,26.84,22.53,39.14,16.71,14.76-7,14-11.66,24.87-18.65s7-19.05,25.64-19.43,57.13-1.17,93.66,8.93,91.71,12.44,122.41,8.94,129.89-32,179.63-29.24,59.85,6.12,73.45,2.62c7.1-1.83,12.5-13.69,12.87-27.91h-.24C681.49,3832.5,617.17,3830.45,555.91,3851.92Z"/><path class="cls-28" d="M919.69,3902.58l-.11.15s-48.59,3-56.18,12.15c-7.92,9.5-13.67,39.48-14.43,69.85,21.26-2.27,66.06-20.5,77.45-27.33,10.81-6.49-4.37-39.66-2-50.14C922.78,3905.73,921.22,3904.18,919.69,3902.58Z"/><path class="cls-28" d="M935,3914.49c-4.76,0-42.86,7.62-48.58,21S902.6,4005,902.6,4005s43.81-38.1,46.67-49.53S935,3914.49,935,3914.49Z"/><path class="cls-63" d="M1416.32,3931.24c-35.71-3.21-103.74-15.09-166.32-23.61s-346.54-25.52-368-27.38c-36.16-3.15-27.55-73.93-5.87-74.86s65.08-2.59,115.58-3.8,409,31.78,433.49,31.11S1452,3934.45,1416.32,3931.24Z"/><path class="cls-63" d="M929.15,3874s-11,12.57-12.58,26.72,49.52,33,59.74,15.72c22.8-30.65,67.61-28.29,67.61-28.29"/><path class="cls-61" d="M1017.47,3867c-35.54,0-51.07,32.74-73.13,54,13.21,3.65,27.15,3.55,32-4.62,12.92-17.36,32.89-24.13,47.78-26.74,88.37,5.92,191.19,13.25,225.91,18,62.58,8.52,130.61,20.4,166.32,23.61,13.27,1.19,21.29-12.22,24.87-29.5l-1.5-.1C1298.31,3890.1,1158.85,3865.09,1017.47,3867Z"/><path class="cls-61" d="M858,3852.36c2.08,14.29,9.38,26.61,24,27.89,4.12.35,18,1.27,38,2.58,3.08-7.25,9-12.82,13-19.37C907.79,3865.16,882.56,3858.45,858,3852.36Z"/><path d="M882.82,3853.55c-6.93,5.39-4,17,.43,26.8,3.51.28,10.52.75,20.26,1.4C896.83,3868.92,898.5,3843.1,882.82,3853.55Z"/><path d="M925.14,3842c1.93,3.84,8.66,0,10.58-3.85,4.18-11.84,3.32-24.68,8.37-35.25-7.27.22-14.22.45-20.77.68C918.66,3816.36,918.56,3830.3,925.14,3842Z"/><path d="M959.77,3889.13c-5.78,1-14.43,5.77-9.62,9.62,9.17,6.12,22.59,9.2,25.29,18.9a9.27,9.27,0,0,0,.87-1.25,60.52,60.52,0,0,1,14-13.5C984.9,3892.09,972,3887.5,959.77,3889.13Z"/><path d="M992,3822.93c-6.26,5.48-9.86,15.29-9,27.57.88,13.46,15.22,33.07,21.88,5.46C1006.42,3844.07,1009.41,3813.07,992,3822.93Z"/><path d="M1057.53,3857.92c-7.69,10-4.92,21.85-2,32.59l21.18,1.48c-5-10.94-6.12-23.41-11.45-34.07C1064.27,3856,1059.46,3856,1057.53,3857.92Z"/><path d="M1108.63,3829.06c-7.94,7.08-4.42,50.31,9.66,42.94C1130.73,3865.48,1130.3,3820.54,1108.63,3829.06Z"/><path d="M1337,3845.15c-2.63,3.65-1,7.95-.09,11.46,2.89,10.58,2.89,21.16,4.81,32.7,0,3.85,2.88,7.69,7.69,5.77,2.89-1,6.74-2.88,7.7-5.77,4.81-14.43,4.81-30.78-4.81-42.32C1348.1,3841.42,1341.91,3841.9,1337,3845.15Z"/><path d="M1410,3862.38c4.81,4.81,12.5-1.92,13.46-8.66,1.26-7.53-.78-15.07-4.21-21.8-3.44,0-10.22-.39-19.69-1C1405.49,3840,1401.35,3855.33,1410,3862.38Z"/><path d="M1389,3896.75c-4.54-1.57-7.77,5.94-8.73,7.86-4.12,8.92-3.3,13.82-9.21,20.16,7.43,1,14.19,1.75,20.15,2.32C1395.7,3916.48,1401.58,3904.61,1389,3896.75Z"/><path d="M1147.5,3868.09c-8.85,2.95-5.82,16.1-3.92,28.57l20,3C1163.17,3883.27,1161.94,3862.77,1147.5,3868.09Z"/><path class="cls-64" d="M1607.08,4052.7a45.48,45.48,0,0,1-12.43-1.81c-18.67-5.3-26.4-18.45-25.87-44,.14-6.75.46-11.88.71-16,.59-9.45.86-13.77-1.76-22-.63-2-1.48-4.38-2.77-7.57-.67-1.65-1.4-3.4-2.16-5.2-5.81-13.82-13-31-7.47-44.4,2.62-6.3,7.9-11.09,15.69-14.24,16-6.47,35.38-7.48,54.12-8.45,15.09-.79,30.69-1.61,43.93-5.32,29.8-8.35,307.19-120.94,345.13-140.07,17.73-8.95,33.54-21.43,48.82-33.49,16.12-12.73,31.35-24.76,47.08-31.11a48.45,48.45,0,0,1,18.21-3.75c22.45,0,37.73,17.66,42.52,29.52,1.58,3.9,4.89,8.17,8.39,12.7,7.46,9.62,16.74,21.59,15.45,37.77-1.49,18.51-16.44,24.69-41.75,29.11-7,1.23-15.06,2.35-23.55,3.54l-5.08.71c-41.87,5.86-215.1,65.39-294.22,101.11-77,34.76-150,82.21-162.57,105.76l-1.59,3c-11.49,21.56-28.85,54.15-58.83,54.15Z"/><path d="M2128.31,3677.52c22,0,36.39,18,40.51,28.16,5.13,12.7,25.52,26.61,23.69,49.49-1.37,17.06-15.49,22.87-40,27.15-8.35,1.46-17.91,2.73-28.56,4.23-41.92,5.87-216.77,66-294.81,101.28s-151,83.15-163.59,106.71c-11.23,20.95-28.44,56-58.51,56a43.21,43.21,0,0,1-11.84-1.73c-16.47-4.68-24.84-15.8-24.3-41.86.47-22,2.79-26.34-1.15-38.66-.7-2.27-1.63-4.77-2.83-7.72-7.69-19-23.68-49.48,4.87-61s68-5.33,97.82-13.7,308.73-121.66,345.52-140.22,65.62-52.36,95.74-64.53a46.31,46.31,0,0,1,17.4-3.58m0-4.33a50.76,50.76,0,0,0-19,3.9c-16,6.47-31.35,18.59-47.6,31.42-15.2,12-30.92,24.41-48.46,33.26-19.06,9.61-101.65,44-175,73.78s-154.48,61.87-169.69,66.14c-13,3.65-28.49,4.45-43.46,5.23-18.92,1-38.48,2-54.82,8.61-8.34,3.38-14,8.56-16.88,15.42-5.91,14.21,1.51,31.87,7.47,46.07q1.15,2.73,2.15,5.17c1.26,3.13,2.1,5.4,2.7,7.37v.05c2.49,7.8,2.25,11.72,1.67,21.17-.26,4.14-.58,9.29-.73,16.08-.54,26.35,7.92,40.57,27.45,46.11a47.46,47.46,0,0,0,13,1.89c31.28,0,49-33.28,60.74-55.3l1.58-3c12.22-22.8,86.21-70.8,161.56-104.81,36.09-16.3,97.62-39.86,160.57-61.5s114-36.77,133.06-39.44l5.14-.72c8.49-1.19,16.51-2.31,23.56-3.53,21.06-3.69,41.77-9.12,43.54-31.07,1.36-17-8.21-29.37-15.9-39.28-3.41-4.4-6.63-8.56-8.09-12.18-5-12.41-21-30.87-44.53-30.87Z"/><path class="cls-65" d="M2192.39,3748.26c-81.34,20.61-206.15,51.47-320.52,101.29-93.84-23.92-139.59,20.81-218.5,39.5,164.28,9.87,94.41,3.67,21.64,81.38-9.85,44.51-93.19,92.43-94.64,12.41.76-26,3.29-28.94-4-46.37-22.67-70.81-26,2.58-6.61,31.82,5.52,19.71-8,77.8,25.45,80.52,37.53,10.67,57.72-30.71,70.35-54.27,28.17-45.83,175.76-116.64,252.17-142.41,57.85-22,176.71-62.07,206.23-65.58C2151.77,3782.2,2198,3780.9,2192.39,3748.26Z"/><path class="cls-64" d="M2164.36,3942.53a38.46,38.46,0,0,1-4.09-.22c-17.16-1.79-34.75-10-51.76-17.92-13.7-6.38-27.85-13-41.29-15.91-30.24-6.6-328-37.3-370.51-38.19-1,0-2.1,0-3.16,0-18.82,0-37.55,3.41-55.67,6.71-16.56,3-32.2,5.86-46.59,5.86a93.64,93.64,0,0,1-9.57-.47c-19.51-2-29.67-12.95-34.76-21.74-6.17-10.67-7.51-22.57-6.79-29.52.44-4.18-.48-9.5-1.46-15.14-2.07-12-4.65-26.92,4.08-40.61,5.22-8.17,12.38-12,22.53-12,7,0,15.6,1.8,28,5.85,6.77,2.21,14.35,5,22.39,7.9l4.89,1.78c39.72,14.46,220.63,43.15,307.27,48.73,17.76,1.14,36,1.72,54.11,1.72,66.35,0,122.24-7.58,139.07-18.86l2.81-1.89c15.6-10.52,37-24.92,58.11-24.92,11.12,0,21,4.08,29.37,12.12,14,13.44,14.66,28.68,2.22,51-3.3,5.89-6,10.27-8.14,13.79-5,8.08-7.22,11.76-8.74,20.22-.41,2.12-.75,4.57-1.11,8-.18,1.78-.35,3.67-.53,5.62-1.74,19.17-4.36,48.14-30.68,48.14Z"/><path d="M1565.32,3765.53c7.5,0,16.54,2.23,27.33,5.74,8,2.64,17.1,6,27.21,9.66,39.77,14.49,222.42,43.36,307.87,48.86,18.23,1.17,36.52,1.72,54.24,1.72,65.33,0,122.82-7.52,140.29-19.23,15.36-10.3,37.93-26.44,59.71-26.44,9.68,0,19.21,3.2,27.87,11.52,12.36,11.86,14.53,25.61,1.83,48.37-10.76,19.24-14.83,21.95-17.12,34.68-.45,2.33-.8,5-1.13,8.14-2,19.53-2.27,51.82-29.06,51.82a37.57,37.57,0,0,1-3.87-.21c-30.63-3.2-62.53-27.19-92.81-33.79S1738,3869,1696.76,3868.12q-1.6,0-3.21,0c-36.26,0-72.42,12.57-102.26,12.57a89.39,89.39,0,0,1-9.35-.46c-34-3.56-41-35.27-39.62-48.88s-10-35.46,2.3-54.82c5-7.83,11.77-11,20.7-11m0-4.32h0c-10.81,0-18.77,4.24-24.35,13-9.19,14.4-6.53,29.79-4.39,42.15,1,5.48,1.85,10.66,1.44,14.55-1.66,15.84,6.79,49.79,43.47,53.63a95.21,95.21,0,0,0,9.8.49c14.58,0,30.32-2.87,47-5.9,18-3.28,36.66-6.67,55.28-6.67,1.06,0,2.08,0,3.12,0,21.35.45,110.41,8.83,189.2,17s165.46,17.83,180.89,21.19c13.2,2.89,27.25,9.43,40.83,15.76,17.17,8,34.93,16.28,52.45,18.12a43,43,0,0,0,4.32.23c12.53,0,21.52-6.19,26.71-18.4,4.13-9.73,5.24-21.92,6.13-31.71.17-2,.34-3.83.53-5.59.35-3.36.68-5.75,1.07-7.77v-.05c1.45-8.06,3.5-11.41,8.45-19.48,2.17-3.54,4.87-7.94,8.18-13.86,12.85-23,12-39.54-2.6-53.6-8.79-8.44-19.17-12.72-30.87-12.72-21.81,0-43.49,14.61-59.32,25.29l-2.8,1.88c-16.25,10.89-72.94,18.5-137.88,18.5-18.09,0-36.25-.58-54-1.72-39.52-2.54-104.92-10.6-170.67-21s-117.89-21-136-27.59l-4.86-1.77c-8.06-2.94-15.68-5.71-22.49-7.94-12.63-4.12-21.47-5.95-28.67-5.95Z"/><g class="cls-66"><path class="cls-40" d="M2210.89,3798.41c-35.07-26.13.89,7.49-21.24,34.74-32.65,31.22-10,103.4-53.25,90.83-88.86-45.79-352.48-60.93-461.65-68.43-44-1.09-85.18,17.49-120.57,11.14,36.74,35.23,91.86-1.38,143.63,2.48,80.07,5.53,245.82,18.1,362.34,38.3,43.94,7.62,76.86,30.32,101.39,33.75,34.26,4.79,30-37.8,34.06-59.76C2200,3861.46,2239.17,3816.51,2210.89,3798.41Z"/></g><polygon class="cls-58" points="1393.55 4416.78 1390.11 4369.73 1466.55 4364.79 1474.37 4415.66 1393.55 4416.78"/><ellipse class="cls-59" cx="1433.96" cy="4416.22" rx="40.41" ry="22.14" transform="translate(-60.82 20.21) rotate(-0.79)"/><ellipse class="cls-3" cx="1433.96" cy="4416.22" rx="11.32" ry="6.2" transform="translate(-60.82 20.21) rotate(-0.79)"/><polygon class="cls-58" points="1816.07 4358.57 1806.66 4312.35 1731.73 4328.26 1737.96 4379.35 1816.07 4358.57"/><ellipse class="cls-59" cx="1777.01" cy="4368.96" rx="40.41" ry="22.14" transform="translate(-1063.42 603.65) rotate(-14.9)"/><ellipse class="cls-3" cx="1777.01" cy="4368.96" rx="11.32" ry="6.2" transform="translate(-1063.42 603.65) rotate(-14.9)"/><path class="cls-67" d="M1842.82,4314.17c-87.45,42-380.09,80.58-477.48,65.79-83.27-6.7-135.81-163.53-20.35-147.77,93.37,16.15,391.2-22.42,477.48-65.76C1927.19,4121.11,1924.75,4276.24,1842.82,4314.17Z"/><path class="cls-3" d="M1836,4302.65c-87.45,42-380.09,80.58-477.47,65.79-83.28-6.7-135.82-163.53-20.35-147.77,93.36,16.16,391.19-22.41,477.47-65.75C1920.37,4109.6,1917.92,4264.72,1836,4302.65Z"/><circle cx="1411.32" cy="4273.2" r="6.41"/><circle cx="1417.37" cy="4317.07" r="6.41"/><circle cx="1459.06" cy="4270.85" r="6.41"/><circle cx="1465.11" cy="4314.73" r="6.41"/><circle cx="1760.13" cy="4225.14" r="6.41"/><circle cx="1766.18" cy="4269.02" r="6.41"/><circle cx="1713.54" cy="4235.8" r="6.41"/><circle cx="1719.58" cy="4279.67" r="6.41"/><path class="cls-68" d="M1055.06,4329c-9.46-.91-492.82-45.27-518.91-46.35-33.46-.44-48.28,59.2-90.23,59-40.13,1.42-82.15-33.82-78.45-75,3.82-74.49,141.84-73.57,104.6,12.32-19,50-90.85,13.32-55.21-25.5h0c9.56-9.6,24.29,5.49,14.59,14.82-1.68,1.65-4.37,4.76-3.59,7.06,1,3,6.54,6.84,13.65,7.83,8.74-2.22,24.5-29.93,10.34-44.33-7.6-7.25-22.82-8.53-37-3.11-30,10.18-34.34,46.1-13.57,66.23,70.42,60.76,71.83-38.54,135.69-40.07,26.79,1.16,481.4,42.76,520.13,46.45C1070.14,4309.59,1068.9,4330.2,1055.06,4329Z"/><path class="cls-69" d="M409.82,5256.12s12.83,18.48,16.87,19.78,8.65,3.19,14.53,1.62,9-8.46,9.14-12.54S382,5121.11,381.55,5117s3.07-23.23-.51-39.09-32.68-73.35-32.68-73.35l-31,38.68Z"/><path class="cls-70" d="M266.83,5105.16s34.4,69.36,52.47,85.69,30.89,19.23,30.89,19.23,31.78,60.35,56,70.14c3.88,1.57,9.93.56,12.82-.77,2.19-1,4.16-4.43,2.72-8.55-8.54-24.46-66.25-103.13-81.21-127.08-17.49-28-44.92-77.94-44.92-77.94Z"/><path class="cls-71" d="M296.56,5065.71s47.8,105.32,74.62,142.23,31.08,40.81,35,43.53,4.66,4.66,11.27,3.88,9.71-3.88,9.71-7.77-61.4-124.35-69.56-139.51-34.19-71.89-34.19-71.89Z"/><g class="cls-72"><path class="cls-40" d="M373.51,5105.16a24,24,0,0,0,5.39-3.25,48,48,0,0,1,3.25,4.84c.6-8,1.1-19-1.11-28.83-3.58-15.86-32.68-73.35-32.68-73.35l-81.53,100.59s32.09,64.71,50.56,83.83c12.4-13.51,26.53-34.77,27-45.36C366.51,5139,374.09,5110.4,373.51,5105.16Z"/></g><text class="cls-15" transform="translate(505.21 4974.18)">1</text><text class="cls-15" transform="translate(508.19 5098.79)">2</text><text class="cls-15" transform="translate(239.53 5287.89)">4</text><circle class="cls-42" cx="517.16" cy="4960.09" r="34.87"/><circle class="cls-42" cx="519.34" cy="5084.33" r="34.87"/><circle class="cls-42" cx="252.82" cy="5272.22" r="34.87"/><line class="cls-42" x1="488.66" y1="4983.7" x2="360.07" y2="5057.8"/><line class="cls-42" x1="493.02" y1="5107.93" x2="399.3" y2="5219.08"/><line class="cls-42" x1="282.89" y1="5259.97" x2="342.18" y2="5187.22"/><text class="cls-73" transform="translate(125.64 5411.51)">&lt;same <tspan class="cls-74" x="145.01" y="0">c</tspan><tspan x="166.22" y="0">olor sets as l</tspan><tspan class="cls-75" x="407.9" y="0">a</tspan><tspan class="cls-76" x="430.65" y="0">y</tspan><tspan x="452.78" y="0">er 4&gt;</tspan></text><rect class="cls-77" x="962.1" y="4899.81" width="259.32" height="261.04"/><rect class="cls-78" x="1325.78" y="4899.81" width="259.32" height="261.04"/><rect class="cls-79" x="1689.35" y="4899.81" width="262.96" height="261.74"/><rect class="cls-80" x="962.1" y="5558.56" width="259.32" height="261.04"/><rect class="cls-81" x="1325.78" y="5558.56" width="259.32" height="261.04"/><rect class="cls-82" x="1689.35" y="5558.56" width="262.96" height="261.74"/><rect class="cls-83" x="1325.78" y="5235.67" width="259.32" height="261.04"/><rect class="cls-84" x="1691.17" y="5235.67" width="259.32" height="261.04"/><rect class="cls-85" x="962.1" y="5235.67" width="259.32" height="261.04"/></g></g></svg>