<svg xmlns="http://www.w3.org/2000/svg" viewBox="0 0 388.02 222.66"><defs><style>.cls-1{fill:#fbcdb8;stroke:#000;stroke-miterlimit:10;stroke-width:4.33px;}</style></defs><g id="Head"><path class="cls-1" d="M185.84,104.94a6.57,6.57,0,0,0-4-.51c5.15-4.83,10.35-11.61,4.74-13.09-2.86-.75-9.71,3.77-16.78,9.48.75-.77,1.33-1.36,1.63-1.71,2.72-3.11,12.14-19.89,4.27-21.76-6.39-1.52-15.28,7.38-23.57,18.6,4.37-11.53,8.45-30.43-1.11-27.18-6.44,3.09-12.43,16.39-17.16,30.5,1-11.64.76-24.12-4-29.69-5.69-6.63-13.22,11.66-14.77,24.09s7.77,57.52,7.77,57.52l4.67,1.55s.57-3.86,1.26-8.83C140.18,119.25,175,114.27,175,114.27S191.2,107.78,185.84,104.94Z"/></g></svg>