<svg xmlns="http://www.w3.org/2000/svg" viewBox="0 0 388.02 222.66"><defs><style>.cls-1{fill:none;stroke-width:8.66px;}.cls-1,.cls-2,.cls-3{stroke:#000;stroke-miterlimit:10;}.cls-2{fill:#00dbdb;stroke-width:4.54px;}.cls-3{fill:#d7de21;stroke-width:4.33px;}</style></defs><g id="Head"><path class="cls-1" d="M232.52,144.17S238,196.83,219.16,211c31.44-5.5,40.87-16.5,55-32.23"/><path class="cls-2" d="M144,88.14s32.53-69.51,113-24.91c56.55,31.33,51.76,62.47,40.33,97.37-3,9.25-7.62,22.49-11.25,33.36-2.61,7.81-17.52,8.9-23,2.75-3.5-3.93,2.78-34.54-2.28-39.18-14.6-13.39-24.56,19.16-34.65-2.36C197.4,93.7,141,108,144,88.14Z"/><line class="cls-1" x1="153.13" y1="98.58" x2="149.2" y2="113.51"/><path class="cls-3" d="M240.19,83.16,225.06,106.6a.58.58,0,0,0,.31.86l22.26,7.42a.57.57,0,0,1,.34.79l-9.89,21.54a1.72,1.72,0,0,0,2.66,2L278.9,107.1a.58.58,0,0,0-.19-1L257,98.86a.57.57,0,0,1-.24-.94l10.39-11.08a.58.58,0,0,0-.36-1l-26-3A.56.56,0,0,0,240.19,83.16Z"/><ellipse cx="191.38" cy="88.79" rx="12.58" ry="7.32" transform="matrix(0.46, -0.89, 0.89, 0.46, 24.41, 217.76)"/><ellipse cx="164.52" cy="78.48" rx="12.58" ry="5.78" transform="translate(9.26 173.99) rotate(-57.1)"/></g></svg>