<svg xmlns="http://www.w3.org/2000/svg" viewBox="0 0 388.02 222.66"><defs><style>.cls-1{fill:#333;}.cls-1,.cls-2,.cls-3{stroke:#000;stroke-miterlimit:10;stroke-width:4.33px;}.cls-2{fill:#1a1a1a;}.cls-3{fill:#00dbdb;}</style></defs><g id="Head"><rect class="cls-1" x="103.72" y="126.5" width="50" height="16.07"/><path class="cls-2" d="M213.24,84.41c-40.87-21-83.85-7.34-96.42,9.43-3.79,5-6.25,11.44-7.83,17.9a30.62,30.62,0,0,1,8.88-1.31,31,31,0,0,1,30.92,31.09c0,.37,0,.73,0,1.09l95,1.25C244.56,140.3,252.07,104.32,213.24,84.41Z"/><path class="cls-2" d="M341.46,113.4c3.67,57.12-97.47,30.92-97.47,30.92-.05.19,1.57-11.53,2.09-15.72C298,126,337.79,56.28,341.46,113.4Z"/><path class="cls-3" d="M112.71,126.5s7.34-34.32-16.5-55.81A96.65,96.65,0,0,0,67.12,53.13s47.69-4.45,56.86,16-.26,66.29-.26,66.29Z"/><path class="cls-3" d="M107.21,131.48c-.52-.79-8.65-40.61-55.55-30.92,22-19.13,40.88-18.08,51.36-14.15,15.67,5.88,12.64,44.36,12.64,44.36"/><path class="cls-3" d="M121.88,131c1.58-2.36-1.31-40.36,24.11-43s29.35,4.72,29.35,4.72-39.57,4.72-38.78,39.57Z"/><path class="cls-1" d="M103.72,126.5h28.14a4.88,4.88,0,0,1,4.88,4.88v6.3a4.88,4.88,0,0,1-4.88,4.88H103.72a0,0,0,0,1,0,0V126.5A0,0,0,0,1,103.72,126.5Z"/><ellipse cx="169.57" cy="71.28" rx="11" ry="5.17"/></g></svg>