<svg xmlns="http://www.w3.org/2000/svg" viewBox="0 0 388.02 222.66"><defs><style>.cls-1{fill:#9c005d;stroke:#000;stroke-miterlimit:10;stroke-width:4.33px;}.cls-2{fill:#ff0;}</style></defs><g id="Head"><path class="cls-1" d="M342.5,8.12c-15.25-2.18-58.84,8.71-100.25,13.07-28.06,3-92.15,47.94-130.55,76.64,55.77,1.91,109.53,12.53,165.76,20.7l1.13.12c.42-25.33-3.65-58.35-3.65-66.94C274.94,51.71,357.76,10.29,342.5,8.12Z"/><path class="cls-2" d="M240.28,43.47l11.23-2.91,8.76,7.6L261,36.58l9.93-6-10.79-4.25L259,21.45q-3.78.53-7.58,1L250.12,24l-6.87-.6-1.27.14c-.9.1-1.83.25-2.79.42l5.61,8.82Z"/><polygon class="cls-2" points="251.16 62.07 242.2 69.43 231.05 66.22 235.28 77.02 228.79 86.63 240.37 85.94 247.5 95.09 250.42 83.87 261.32 79.91 251.55 73.66 251.16 62.07"/><polygon class="cls-2" points="212.68 50.45 208.61 42.94 205.13 50.73 196.74 52.27 203.06 58 201.94 66.45 209.34 62.2 217.03 65.89 215.28 57.54 221.16 51.35 212.68 50.45"/><path class="cls-2" d="M306.91,18l-7,4.95-8-2.91,2.57,8.14-5.26,6.72,8.54.08L299,36.67c3.95-2.11,8.15-4.38,12.36-6.71l-4.7-3.47Z"/><path class="cls-1" d="M284.56,96a603.38,603.38,0,0,0-81.64-18.26c-19.24-3-37.93-5-55.62-6.16-76.59-5-134.55,6.57-138.21,30.27-3,19.29,30.77,41.8,83.64,59.41,4.21-2.76,10.23-6,10-6,2.72-1.56,6.16-6,6.7-6.23-.59-4.38.69-19.15,15.43-25.22a260.57,260.57,0,0,1,62.9,1.42c30.51,5.82,41.05,12,48,16.42,16.07,13.61,25.38,29.93,24.34,46.25-.06.86,115.44.18,120.29-28.62C383.9,138.61,344.37,114.12,284.56,96Z"/><polygon class="cls-2" points="60.02 117.93 48.47 116.9 41.07 125.84 38.48 114.53 27.7 110.26 37.65 104.3 38.38 92.72 47.12 100.35 58.36 97.47 53.81 108.14 60.02 117.93"/><polygon class="cls-2" points="243.68 129.42 236.55 120.27 224.97 120.96 231.47 111.35 227.24 100.55 238.38 103.76 247.34 96.4 247.74 107.99 257.51 114.24 246.61 118.19 243.68 129.42"/><polygon class="cls-2" points="344.57 160.97 333.5 157.49 324.36 164.63 324.25 153.03 314.64 146.55 325.63 142.86 328.83 131.71 335.74 141.03 347.33 140.62 340.6 150.07 344.57 160.97"/><polygon class="cls-2" points="87.84 140.08 81.67 135.15 74.11 137.44 76.89 130.04 72.37 123.56 80.26 123.92 85.03 117.62 87.13 125.24 94.59 127.83 88 132.18 87.84 140.08"/><polygon class="cls-2" points="292.22 136.72 286.05 131.79 278.48 134.08 281.26 126.68 276.75 120.2 284.64 120.56 289.41 114.26 291.51 121.88 298.97 124.47 292.38 128.82 292.22 136.72"/><polygon class="cls-2" points="146.71 110.97 135.96 106.61 126.28 113 127.1 101.43 118.03 94.2 129.29 91.4 133.36 80.54 139.5 90.39 151.09 90.91 143.63 99.79 146.71 110.97"/><polygon class="cls-2" points="193.57 109.62 186.9 104.3 178.74 106.77 181.74 98.79 176.86 91.78 185.39 92.17 190.54 85.37 192.8 93.6 200.87 96.39 193.74 101.09 193.57 109.62"/><polygon class="cls-2" points="286.4 173.96 281.62 166.89 273.09 166.81 278.34 160.09 275.78 151.95 283.8 154.86 290.74 149.91 290.45 158.44 297.31 163.51 289.11 165.87 286.4 173.96"/><polygon class="cls-2" points="92.42 108.3 87.65 101.23 79.11 101.16 84.36 94.43 81.8 86.29 89.82 89.2 96.77 84.25 96.47 92.78 103.33 97.86 95.13 100.21 92.42 108.3"/></g></svg>