<svg xmlns="http://www.w3.org/2000/svg" xmlns:xlink="http://www.w3.org/1999/xlink" viewBox="0 0 309.73 248.67"><defs><style>.cls-1{fill:url(#radial-gradient);}.cls-2,.cls-4{fill:none;stroke:#000;stroke-miterlimit:10;}.cls-2{stroke-width:4.33px;}.cls-3{fill:#ff0;}.cls-4{stroke-width:4px;}</style><radialGradient id="radial-gradient" cx="110.98" cy="97.89" r="27.38" gradientUnits="userSpaceOnUse"><stop offset="0.22" stop-color="#ffffea"/><stop offset="0.24" stop-color="#f9feea"/><stop offset="0.27" stop-color="#e7fce9"/><stop offset="0.31" stop-color="#c9f7e7"/><stop offset="0.35" stop-color="#a0f2e4"/><stop offset="0.4" stop-color="#6aeae1"/><stop offset="0.45" stop-color="#2be1de"/><stop offset="0.48" stop-color="#00dbdb"/><stop offset="0.52" stop-color="#09d3dc"/><stop offset="0.59" stop-color="#21bee0"/><stop offset="0.67" stop-color="#499ce5"/><stop offset="0.78" stop-color="#806ded"/><stop offset="0.89" stop-color="#c532f7"/><stop offset="0.97" stop-color="#f0f"/></radialGradient></defs><g id="Neck"><circle class="cls-1" cx="110.98" cy="97.89" r="27.38"/><circle class="cls-2" cx="110.98" cy="97.89" r="27.38"/><path class="cls-3" d="M110.12,78.26c-7.28,0-14.63-1.88-14.63-6.09s7.35-6.09,14.63-6.09,14.62,1.88,14.62,6.09S117.39,78.26,110.12,78.26Z"/><path d="M110.11,68.08c7,0,12.63,1.83,12.63,4.09s-5.65,4.09-12.63,4.09-12.62-1.83-12.62-4.09,5.65-4.09,12.62-4.09m0-4c-8,0-16.62,2.12-16.62,8.09,0,3.91,4.37,8.09,16.62,8.09,8,0,16.63-2.12,16.63-8.09,0-3.91-4.37-8.09-16.63-8.09Z"/><ellipse class="cls-3" cx="110.12" cy="66.82" rx="10.8" ry="5.07"/><path d="M110.11,63.75c4.86,0,8.8,1.37,8.8,3.07s-3.94,3.06-8.8,3.06-8.79-1.37-8.79-3.06,3.94-3.07,8.79-3.07m0-4c-7.89,0-12.79,2.71-12.79,7.07s4.9,7.06,12.79,7.06,12.8-2.71,12.8-7.06-4.9-7.07-12.8-7.07Z"/><path class="cls-4" d="M269.9,30.37s11.36-7,21.79,0C308,41.26,267.22,57.45,260.09,58.7c-42.32,7.45-63.93-11.35-95.17-16.8s-53.81,19.71-53.81,19.71-3.67-20.44,10.49-26.25c9.18-3.76,12.44-5,20.44-3.9"/></g></svg>