<svg xmlns="http://www.w3.org/2000/svg" viewBox="0 0 309.73 248.67"><defs><style>.cls-1{fill:#8cc63f;stroke:#000;stroke-miterlimit:10;stroke-width:4.33px;}</style></defs><g id="Neck"><path class="cls-1" d="M180.45,41.4S250,35,265.74,21.54c8.5-7.25,14.37,10.71,5.06,16.41-12.66,7.74-54.61,20.79-83.72,19.83C174.38,51.75,180.45,41.4,180.45,41.4Z"/><path class="cls-1" d="M153.81,44.09s-19.5-21.33-27.35-21.68-7.67,13-7.16,19.35-6.92,13.85-2.42,18.77,25.85,2.73,36.44-5.45S153.81,44.09,153.81,44.09Z"/><path class="cls-1" d="M171.13,44.07a14,14,0,0,0-13.07-6.88c-9.46.37-15.28,7.19-12.48,15.18s9.1,7.49,14.6,7.74S170.06,50.32,171.13,44.07Z"/><path class="cls-1" d="M168.87,41.61s39.54-21.84,44.65-13-3.13,17.17-2.59,22.71,7.9,16.87.66,20.48-45.74-15.41-45.74-15.41S163.17,46.08,168.87,41.61Z"/></g></svg>