<svg xmlns="http://www.w3.org/2000/svg" viewBox="0 0 309.73 248.67"><defs><style>.cls-1{fill:#f0f0f0;}.cls-1,.cls-2{stroke:#000;stroke-miterlimit:10;stroke-width:4.33px;}</style></defs><g id="Neck"><path class="cls-1" d="M159,32.31s-15.2,9.44,4.72,13.63a122.57,122.57,0,0,0,15.32,2.17,68.26,68.26,0,0,0-1.74-16.18C166.3,32.41,159,32.31,159,32.31Z"/><path class="cls-2" d="M198.37,30.49c-7.76.73-15,1.17-21,1.44a68.26,68.26,0,0,1,1.74,16.18,177.29,177.29,0,0,0,19.87.46A41.53,41.53,0,0,0,198.37,30.49Z"/><path class="cls-1" d="M223,27.3c-8.37,1.43-16.77,2.46-24.59,3.19A41.53,41.53,0,0,1,199,48.57a247.46,247.46,0,0,0,25.79-2.21C225.91,39.84,225.84,33,223,27.3Z"/><path class="cls-2" d="M244.63,22.48A208.44,208.44,0,0,1,223,27.3c2.88,5.66,2.95,12.54,1.78,19.06,7.81-1.06,15.18-2.4,21.71-3.81C246.54,35.69,246.75,28.88,244.63,22.48Z"/><path class="cls-2" d="M270.66,11.35a61.57,61.57,0,0,1-6,3.47,63.3,63.3,0,0,1,.55,22.83c4.16-1.33,7-2.49,8-3.24C279.05,30.22,279.05,6.11,270.66,11.35Z"/><path class="cls-1" d="M264.71,14.82a108.16,108.16,0,0,1-20.08,7.66c2.12,6.4,1.91,13.21,1.82,20.07,7.61-1.65,14.07-3.39,18.81-4.9A63.3,63.3,0,0,0,264.71,14.82Z"/><path class="cls-2" d="M133.88,39.34c-3.85,7.51-6.54,16-9.13,23.78,3.09,2.57,7.89,3.23,16.47,3.26,1.16,0,9-5,15.19-11.42l.24-.26C150,48.55,142.1,43.64,133.88,39.34Z"/><path class="cls-1" d="M163.11,37.4c-3.07-5.92-9.51-11-15.84-14.17l-.15-.07c-5.75,4-9.93,9.73-13.24,16.18,8.22,4.3,16.11,9.21,22.77,15.36C161.9,49.17,165.83,42.64,163.11,37.4Z"/><path class="cls-2" d="M147.12,23.16c-5.82-2.87-11.53-4.08-14.42-2.74-3.21,1.5-7.65,6.72-10.65,13.16,4,1.82,7.93,3.73,11.83,5.76C137.19,32.89,141.37,27.15,147.12,23.16Z"/><path class="cls-1" d="M133.88,39.34c-3.9-2-7.88-3.94-11.83-5.76-.27.59-.54,1.19-.79,1.8-2.13,5.22-3.23,11-2,16.28,1.41,5.74,2.81,9.28,5.44,11.46C127.34,55.31,130,46.85,133.88,39.34Z"/><path class="cls-2" d="M125.6,57.43,120,53.58a153.57,153.57,0,0,0-20.39,14,39,39,0,0,1,8.73,6.36A182.62,182.62,0,0,1,125.6,57.43Z"/><path class="cls-1" d="M86.16,104a169.27,169.27,0,0,1,22.21-30.12,39,39,0,0,0-8.73-6.36c-9.39,7.52-20.3,17.89-28.84,30.63A51.9,51.9,0,0,1,86.16,104Z"/><path class="cls-2" d="M42.73,181.27C27.71,195.1,16.65,202,16.65,202S4.37,236.47,7,237.67c.11.05,3.5-.39,3.75-.33,21.23-9.84,43.38-21.56,54-43a185.2,185.2,0,0,0-20.54-14.66C43.77,180.25,43.28,180.76,42.73,181.27Z"/><path class="cls-1" d="M68.53,184.94c3.47-11.88,3-25,3.63-37.36a111.25,111.25,0,0,1-17.56-9.24C50.73,158,53.52,169.8,44.26,179.73A185.2,185.2,0,0,1,64.8,194.39,59.38,59.38,0,0,0,68.53,184.94Z"/><path class="cls-2" d="M72.16,147.58c.44-8.77,1.43-17.17,4.76-24.51a147.7,147.7,0,0,1,9.24-19A51.9,51.9,0,0,0,70.8,98.18a94.39,94.39,0,0,0-8.29,15,121.13,121.13,0,0,0-7.91,25.12A111.25,111.25,0,0,0,72.16,147.58Z"/><path class="cls-1" d="M136.75,65.14,125.6,57.43a182.62,182.62,0,0,0-17.23,16.48,41.75,41.75,0,0,1,9.34,13.62C127.84,75.08,136.75,65.14,136.75,65.14Z"/><path class="cls-2" d="M117.71,87.53a41.75,41.75,0,0,0-9.34-13.62A169.27,169.27,0,0,0,86.16,104a121.82,121.82,0,0,1,12.71,8.38C104.32,104.38,111.26,95.45,117.71,87.53Z"/><path class="cls-1" d="M87.61,155c-.64-11.18-.42-21.71,3.81-30.28a107.33,107.33,0,0,1,7.45-12.35A121.82,121.82,0,0,0,86.16,104a147.7,147.7,0,0,0-9.24,19c-3.33,7.34-4.32,15.74-4.76,24.51C77.43,149.93,82.7,152.24,87.61,155Z"/><path class="cls-1" d="M10.76,237.34c5.7,1.32,46.54,4.55,46.54,4.55s14.63-10.31,24-26.94c-3.63-8-9.57-14.68-16.46-20.56C54.14,215.78,32,227.5,10.76,237.34Z"/><path class="cls-2" d="M87.14,200.64c3.74-14.26,1.33-30.52.47-45.6-4.91-2.8-10.18-5.11-15.45-7.46-.63,12.37-.16,25.48-3.63,37.36a59.38,59.38,0,0,1-3.73,9.45C71.69,200.27,77.63,207,81.26,215A61,61,0,0,0,87.14,200.64Z"/></g></svg>