<svg xmlns="http://www.w3.org/2000/svg" viewBox="0 0 309.73 248.67"><defs><style>.cls-1{fill:#1a1a1a;}.cls-1,.cls-2{stroke:#000;stroke-miterlimit:10;stroke-width:4.33px;}.cls-2{fill:#cacaca;}</style></defs><g id="Neck"><path class="cls-1" d="M275.05,7.31c-19.73,2.55-38.64,4-55.75,4.64-10.81,8.06-20.65,8.33-30.5,5.15a42.83,42.83,0,0,1-9.45-4.7h-.84c-1.63,4.74-4.8,8.41-7.19,9.37-12.78,5.11-32.46-.63-33-.82-1.2,5-2.48,9.7-3.67,17.29,60.79,17.82,143.06-.53,143.06-.53S278.2,18.32,275.05,7.31Z"/><path class="cls-2" d="M277,13.42l22.36,5.94L278,30.19s-6.64-1.74-7.34-8S277,13.42,277,13.42Z"/><path class="cls-2" d="M243.43,17.62,259.16,25l-14.68,9.44s-6.64-1.75-7.33-8S243.43,17.62,243.43,17.62Z"/><path class="cls-2" d="M166.87,19.36,151.15,26.7l14.68,9.43s6.63-1.74,7.33-8S166.87,19.36,166.87,19.36Z"/><path class="cls-2" d="M127.11,15l-12.59,3.35,21.31,10.83s6.43-1.71,7.29-7.78a42.64,42.64,0,0,1-4.77-1.16A38.23,38.23,0,0,1,127.11,15Z"/><circle class="cls-2" cx="205.7" cy="28.8" r="8.23"/></g></svg>